<svg xmlns="http://www.w3.org/2000/svg" xmlns:xlink="http://www.w3.org/1999/xlink" width="52" height="51.997" viewBox="0 0 52 51.997">
  <defs>
    <linearGradient id="linear-gradient" x1="0.732" y1="0.374" x2="0.732" y2="-0.808" gradientUnits="objectBoundingBox">
      <stop offset="0" stop-color="#3fd578"/>
      <stop offset="1" stop-color="#38af71"/>
    </linearGradient>
    <linearGradient id="linear-gradient-2" x1="1.168" y1="0.718" x2="1.168" y2="-1.37" gradientUnits="objectBoundingBox">
      <stop offset="0" stop-color="#5add8c"/>
      <stop offset="0.996" stop-color="#4ebd86"/>
      <stop offset="1" stop-color="#4ebd86"/>
    </linearGradient>
    <linearGradient id="linear-gradient-3" x1="-0.023" y1="2.186" x2="-0.023" y2="0.957" gradientUnits="objectBoundingBox">
      <stop offset="0" stop-color="#fdbb83"/>
      <stop offset="0.359" stop-color="#fcbc75"/>
      <stop offset="0.996" stop-color="#fdbe50"/>
      <stop offset="1" stop-color="#fdbe50"/>
    </linearGradient>
    <linearGradient id="linear-gradient-4" x1="-0.089" y1="1.255" x2="-0.089" y2="2.16" gradientUnits="objectBoundingBox">
      <stop offset="0" stop-color="#155cdc"/>
      <stop offset="0.278" stop-color="#1e7fe3"/>
      <stop offset="0.569" stop-color="#279ae9"/>
      <stop offset="0.82" stop-color="#2eaded"/>
      <stop offset="1" stop-color="#2fb3ee"/>
    </linearGradient>
    <linearGradient id="linear-gradient-5" x1="0.196" y1="0.678" x2="0.196" y2="1.639" xlink:href="#linear-gradient-4"/>
    <linearGradient id="linear-gradient-6" x1="0.202" y1="0.431" x2="0.202" y2="1.63" xlink:href="#linear-gradient-4"/>
    <linearGradient id="linear-gradient-7" x1="-1.241" y1="4.326" x2="-1.241" y2="5.012" gradientUnits="objectBoundingBox">
      <stop offset="0" stop-color="#fd9557"/>
      <stop offset="1" stop-color="#fdb45b"/>
    </linearGradient>
    <linearGradient id="linear-gradient-8" x1="1.017" y1="-0.419" x2="1.017" y2="-1.499" xlink:href="#linear-gradient-3"/>
    <linearGradient id="linear-gradient-9" x1="1.651" y1="-0.986" x2="1.651" y2="-2.094" xlink:href="#linear-gradient-3"/>
    <linearGradient id="linear-gradient-10" x1="1.651" y1="-2.552" x2="1.651" y2="0.937" gradientUnits="objectBoundingBox">
      <stop offset="0" stop-color="#fdcf7a"/>
      <stop offset="0.004" stop-color="#fdcf7a"/>
      <stop offset="0.609" stop-color="#fcce94"/>
      <stop offset="1" stop-color="#fdcda2"/>
    </linearGradient>
  </defs>
  <g id="champagne_bottle" transform="translate(-352 -166.002)">
    <path id="Path_231" data-name="Path 231" d="M33.929,47.093,24.2,56.824a4.011,4.011,0,0,1-5.674,0L7.176,45.476a4.011,4.011,0,0,1,0-5.674l9.731-9.731A25.1,25.1,0,0,1,29.2,23.326a18.87,18.87,0,0,0,2.057-.581l10,10a18.649,18.649,0,0,0-.581,2.057,25.257,25.257,0,0,1-2.5,6.625,25.041,25.041,0,0,1-4.247,5.666Z" transform="translate(346 160)" fill="url(#linear-gradient)"/>
    <path id="Path_232" data-name="Path 232" d="M16.176,49.242a3.517,3.517,0,0,1-5.1.135l-3.9-3.9a4.011,4.011,0,0,1,0-5.674l9.731-9.731a24.724,24.724,0,0,1,4.149-3.341l1.724,1.724a2.006,2.006,0,0,1-.262,3.057,2.077,2.077,0,0,1-2.653-.3l-.028-.028a1.5,1.5,0,1,0-2.128,2.128l3.3,3.3a2.507,2.507,0,0,1-.192,3.724,2.6,2.6,0,0,1-3.454-.277l-.255-.255a2.006,2.006,0,1,0-2.837,2.837L15.9,44.27a3.649,3.649,0,0,1,.276,4.972Z" transform="translate(346 160)" fill="url(#linear-gradient-2)"/>
    <path id="Path_233" data-name="Path 233" d="M41.632,31.7l-9.341-9.341a18.24,18.24,0,0,0,2.348-1.128,19.833,19.833,0,0,0,4.284-3.249l7.977-7.97L53.988,17.1l-7.972,7.972a19.694,19.694,0,0,0-3.426,4.6,20.329,20.329,0,0,0-.958,2.028Z" transform="translate(346 160)" fill="url(#linear-gradient-3)"/>
    <path id="Path_234" data-name="Path 234" d="M37.6,27.95l-1.5.66-4.022,1.766-3.085-7c.071-.014.135-.036.206-.05a19.78,19.78,0,0,0,5.44-2.092l2.7,6.135Z" transform="translate(346 160)" fill="url(#linear-gradient-4)"/>
    <path id="Path_235" data-name="Path 235" d="M40.54,35.362l-6.206-2.731L36.1,28.609l.66-1.5.582.255,5.249,2.312A19.529,19.529,0,0,0,40.676,34.8C40.632,34.986,40.59,35.17,40.54,35.362Z" transform="translate(346 160)" fill="url(#linear-gradient-5)"/>
    <path id="Path_236" data-name="Path 236" d="M32,26.326c2.35-2.35,5.526-2.985,7.093-1.419s.932,4.742-1.419,7.093-5.526,2.985-7.093,1.419S29.65,28.676,32,26.326Z" transform="translate(346 160)" fill="url(#linear-gradient-6)"/>
    <path id="Path_237" data-name="Path 237" d="M53.988,7.175l2.837,2.837a4.012,4.012,0,0,1,0,5.674L55.406,17.1a2.007,2.007,0,0,1-2.837,0L46.9,11.431a2.007,2.007,0,0,1,0-2.837l1.419-1.419a4.012,4.012,0,0,1,5.669,0Z" transform="translate(346 160)" fill="url(#linear-gradient-7)"/>
    <path id="Path_238" data-name="Path 238" d="M23.489,33.418l7.093,7.093a3.01,3.01,0,0,1,0,4.256L24.2,51.15a3.01,3.01,0,0,1-4.256,0L12.85,44.057a3.01,3.01,0,0,1,0-4.256l6.383-6.383a3.01,3.01,0,0,1,4.256,0Z" transform="translate(346 160)" fill="url(#linear-gradient-8)"/>
    <path id="Path_239" data-name="Path 239" d="M16.857,48.065,12.85,44.058a3.006,3.006,0,0,1,0-4.256l5.674-5.674,2.482,2.482a2.507,2.507,0,0,1-.192,3.724,2.6,2.6,0,0,1-3.454-.277l-.255-.255a2.006,2.006,0,1,0-2.837,2.837L15.9,44.27a3.792,3.792,0,0,1,.957,3.795Z" transform="translate(346 160)" fill="url(#linear-gradient-9)"/>
    <path id="Path_240" data-name="Path 240" d="M16.857,48.065,12.85,44.058a3.006,3.006,0,0,1,0-4.256l5.674-5.674,2.482,2.482a2.507,2.507,0,0,1-.192,3.724,2.6,2.6,0,0,1-3.454-.277l-.255-.255a2.006,2.006,0,1,0-2.837,2.837L15.9,44.27a3.792,3.792,0,0,1,.957,3.795Z" transform="translate(346 160)" fill="url(#linear-gradient-10)"/>
  </g>
</svg>
