<svg xmlns="http://www.w3.org/2000/svg" xmlns:xlink="http://www.w3.org/1999/xlink" width="52" height="52.056" viewBox="0 0 52 52.056">
  <defs>
    <linearGradient id="linear-gradient" x1="0.5" y1="-0.005" x2="0.5" y2="0.96" gradientUnits="objectBoundingBox">
      <stop offset="0" stop-color="#a4a4a4"/>
      <stop offset="0.619" stop-color="gray"/>
      <stop offset="1" stop-color="#6f6f6f"/>
    </linearGradient>
  </defs>
  <g id="github" transform="translate(-212.003 -265)">
    <path id="Path_230" data-name="Path 230" d="M58,32A26,26,0,0,1,35,57.83,27.008,27.008,0,0,1,32,58,26,26,0,1,1,58,32Z" transform="translate(206.003 259)" fill="url(#linear-gradient)"/>
    <path id="Path_231" data-name="Path 231" d="M22.973,57.169l-.019-.006Z" transform="translate(206.003 259)" fill="#fff"/>
    <path id="Path_232" data-name="Path 232" d="M40,56.727V50.461c0-2.733-1.831-6.361-4.341-7.652,9.12-.931,13.472-5.408,13.472-11.485A10.968,10.968,0,0,0,46.1,24.055c.638-2.114,1.44-6.451-.233-8.1A9.583,9.583,0,0,0,38.668,19.3a21.026,21.026,0,0,0-13.34,0,9.591,9.591,0,0,0-7.191-3.337c-1.666,1.645-.873,5.964-.242,8.082a10.973,10.973,0,0,0-3.054,7.285c0,6.081,4.359,10.561,13.493,11.487a8.512,8.512,0,0,0-3.63,4.421,26.621,26.621,0,0,1-3.865.273c-2.041,0-2.555-.32-3.648-1.733a7.179,7.179,0,0,0-3.669-2.753c-.761-.079-1.264.505-.6,1.016,2.226,1.537,2.382,4.049,3.28,5.692A4.792,4.792,0,0,0,20.553,52H24v4.737c0,.25,4,1.319,8,1.319A21.6,21.6,0,0,0,40,56.727Z" transform="translate(206.003 259)" fill="#fff"/>
  </g>
</svg>
