<svg xmlns="http://www.w3.org/2000/svg" xmlns:xlink="http://www.w3.org/1999/xlink" width="46" height="49" viewBox="0 0 46 49">
  <defs>
    <linearGradient id="linear-gradient" x1="0.5" y1="1.524" x2="0.5" y2="0.524" gradientUnits="objectBoundingBox">
      <stop offset="0" stop-color="#ffce76"/>
      <stop offset="0.004" stop-color="#ffce76"/>
      <stop offset="0.605" stop-color="#ffcd92"/>
      <stop offset="1" stop-color="#ffcca0"/>
    </linearGradient>
    <linearGradient id="linear-gradient-2" x1="0.5" y1="1" x2="0.5" gradientUnits="objectBoundingBox">
      <stop offset="0" stop-color="#ff634d"/>
      <stop offset="0.208" stop-color="#fd6464"/>
      <stop offset="0.522" stop-color="#fc6582"/>
      <stop offset="0.793" stop-color="#fa6694"/>
      <stop offset="0.989" stop-color="#fa669a"/>
      <stop offset="1" stop-color="#fa669a"/>
    </linearGradient>
    <linearGradient id="linear-gradient-3" x1="0.5" y1="1" x2="0.5" gradientUnits="objectBoundingBox">
      <stop offset="0" stop-color="#ff5840"/>
      <stop offset="0.007" stop-color="#ff5840"/>
      <stop offset="0.989" stop-color="#fa528c"/>
      <stop offset="1" stop-color="#fa528c"/>
    </linearGradient>
    <linearGradient id="linear-gradient-4" x1="0.5" x2="0.5" y2="1" gradientUnits="objectBoundingBox">
      <stop offset="0" stop-color="#a4a4a4"/>
      <stop offset="0.63" stop-color="#7f7f7f"/>
      <stop offset="1" stop-color="#6f6f6f"/>
    </linearGradient>
    <linearGradient id="linear-gradient-7" x1="0.5" y1="1" x2="0.5" gradientUnits="objectBoundingBox">
      <stop offset="0" stop-color="#e3714d"/>
      <stop offset="0.25" stop-color="#e4754e"/>
      <stop offset="1" stop-color="#e77b50"/>
    </linearGradient>
    <linearGradient id="linear-gradient-8" x1="0.5" y1="1" x2="0.5" y2="0" xlink:href="#linear-gradient-7"/>
    <linearGradient id="linear-gradient-9" x1="0.5" y1="1" x2="0.5" y2="0" xlink:href="#linear-gradient-7"/>
  </defs>
  <g id="january" transform="translate(-272.999 -456)">
    <path id="Path_231" data-name="Path 231" d="M9,50V20H55V50a5,5,0,0,1-5,5H14A5,5,0,0,1,9,50Z" transform="translate(263.999 450)" fill="url(#linear-gradient)"/>
    <path id="Path_232" data-name="Path 232" d="M55,14.8V23H9V14.8A4.819,4.819,0,0,1,13.842,10H50.158A4.819,4.819,0,0,1,55,14.8" transform="translate(263.999 450)" fill="url(#linear-gradient-2)"/>
    <path id="Path_233" data-name="Path 233" d="M24.655,10H18.344a5.5,5.5,0,1,0,6.311,0Z" transform="translate(263.999 450)" fill="url(#linear-gradient-3)"/>
    <path id="Path_234" data-name="Path 234" d="M21.5,17h0A2.507,2.507,0,0,1,19,14.5v-6A2.507,2.507,0,0,1,21.5,6h0A2.507,2.507,0,0,1,24,8.5v6A2.507,2.507,0,0,1,21.5,17Z" transform="translate(263.999 450)" fill="url(#linear-gradient-4)"/>
    <path id="Path_235" data-name="Path 235" d="M45.655,10H39.344a5.5,5.5,0,1,0,6.311,0Z" transform="translate(263.999 450)" fill="url(#linear-gradient-3)"/>
    <path id="Path_236" data-name="Path 236" d="M42.5,17h0A2.507,2.507,0,0,1,40,14.5v-6A2.507,2.507,0,0,1,42.5,6h0A2.507,2.507,0,0,1,45,8.5v6A2.507,2.507,0,0,1,42.5,17Z" transform="translate(263.999 450)" fill="url(#linear-gradient-4)"/>
    <g id="Group_20" data-name="Group 20" transform="translate(263.999 450)">
      <path id="Path_237" data-name="Path 237" d="M17.767,40.309a1.426,1.426,0,0,1,1.155.7,1.444,1.444,0,0,0,1.246.638c.835,0,1.291-.38,1.291-1.519V33.535a1.458,1.458,0,0,1,2.916,0V39.99c0,2.157-1.094,3.934-4.1,3.934a4.415,4.415,0,0,1-3.615-1.4,1.394,1.394,0,0,1-.273-.835A1.339,1.339,0,0,1,17.767,40.309Z" fill="url(#linear-gradient-7)"/>
      <path id="Path_238" data-name="Path 238" d="M25.62,42.04l2.886-8.354a2.406,2.406,0,0,1,4.541,0L35.9,41.949a1.612,1.612,0,0,1,.076.455,1.386,1.386,0,0,1-2.7.426l-.5-1.6H28.642l-.5,1.625a1.33,1.33,0,0,1-2.6-.4A1.366,1.366,0,0,1,25.62,42.04Zm6.441-3.053-.729-2.324c-.23-.736-.366-1.269-.532-1.929h-.182c-.165.66-.3,1.193-.532,1.929l-.729,2.324Z" fill="url(#linear-gradient-8)"/>
      <path id="Path_239" data-name="Path 239" d="M37.53,34.051a1.97,1.97,0,0,1,3.66-1.017l3.038,5.043a9.343,9.343,0,0,1,.653,1.306h.076V33.4a1.329,1.329,0,0,1,2.658,0v8.537a1.858,1.858,0,0,1-3.448.957l-3.19-5.255a7.366,7.366,0,0,1-.683-1.337h-.076v6.152a1.345,1.345,0,0,1-2.689,0v-8.4Z" fill="url(#linear-gradient-9)"/>
    </g>
  </g>
</svg>
