<svg xmlns="http://www.w3.org/2000/svg" width="26" height="26.484" viewBox="0 0 26 26.484">
  <path id="light_automation" d="M6.516,2.516a1,1,0,1,0,1,1,1,1,0,0,0-1-1Zm16.969,0a1,1,0,1,0,1,1A1,1,0,0,0,23.484,2.516ZM15,3a9,9,0,0,0-9,9c0,5,4,7,6,11h6c2-4,6-6,6-11A9,9,0,0,0,15,3Zm-.363,3.549h.727a.726.726,0,0,1,.726.727v.52a4.339,4.339,0,0,1,2.018,1.152l.439-.254a.726.726,0,0,1,.992.268l.363.629a.725.725,0,0,1-.266.992l-.451.262A4.322,4.322,0,0,1,19.361,12a4.343,4.343,0,0,1-.176,1.158l.451.26a.725.725,0,0,1,.266.992l-.363.631a.725.725,0,0,1-.992.266l-.439-.252a4.343,4.343,0,0,1-2.018,1.152v.518a.726.726,0,0,1-.726.727h-.727a.728.728,0,0,1-.728-.727v-.518a4.339,4.339,0,0,1-2.018-1.152l-.437.252a.725.725,0,0,1-.992-.266L10.1,14.41a.725.725,0,0,1,.266-.992l.451-.26a3.946,3.946,0,0,1,0-2.316l-.451-.26A.725.725,0,0,1,10.1,9.59l.365-.631a.725.725,0,0,1,.992-.266l.438.252a4.344,4.344,0,0,1,2.018-1.152V7.275A.728.728,0,0,1,14.637,6.549ZM15,9.82A2.18,2.18,0,1,0,17.18,12,2.179,2.179,0,0,0,15,9.82ZM3,11a1,1,0,1,0,1,1A1,1,0,0,0,3,11Zm24,0a1,1,0,1,0,1,1A1,1,0,0,0,27,11ZM6.516,19.484a1,1,0,1,0,1,1A1,1,0,0,0,6.516,19.484Zm16.969,0a1,1,0,1,0,1,1A1,1,0,0,0,23.484,19.484ZM12,25v1a2,2,0,0,0,2,2,1,1,0,0,0,2,0,2,2,0,0,0,2-2V25Z" transform="translate(-2 -2.516)" fill="#fff"/>
</svg>
