<svg xmlns="http://www.w3.org/2000/svg" width="1886" height="960.712" viewBox="0 0 1886 960.712">
  <g id="Particles" transform="translate(0 -119.288)">
    <g id="Group_9" data-name="Group 9" transform="translate(96.853 450.814)">
      <path id="Path_199" data-name="Path 199" d="M-87.583-100.439c1.919,2.379,2.086,6.069,1.293,9.587s-2.545,6.885-5.476,8.478A11.443,11.443,0,0,1-102-82.586a11.368,11.368,0,0,1-6.029-7.933,11.04,11.04,0,0,1,2.785-8.982,12.612,12.612,0,0,1,8.658-4.153C-93.195-103.877-89.513-102.808-87.583-100.439Z" transform="translate(108.159 103.684)" fill="#3d0ef7"/>
    </g>
    <g id="Group_10" data-name="Group 10" transform="translate(426.035 987.733)">
      <path id="Path_200" data-name="Path 200" d="M-87.722-93.835a14.128,14.128,0,0,1,2.993,13.016C-86.02-76.461-89.85-73.072-94.3-70.9s-9.538,3.126-14.013,1.482a15.129,15.129,0,0,1-9.333-10.624,15.574,15.574,0,0,1,4.226-13.485c3.331-3.4,8.071-4.93,12.9-4.989S-90.789-97.2-87.722-93.835Z" transform="translate(117.907 98.519)" fill="#0ee0f7"/>
    </g>
    <g id="Group_11" data-name="Group 11" transform="translate(31.667 858.435)">
      <path id="Path_201" data-name="Path 201" d="M-29.623-54.64c4.309,5.061,6.7,12,5.3,18.021-1.4,6.053-6.6,11.216-12.618,13.747a24.762,24.762,0,0,1-19.013-.1c-6.224-2.53-11.866-7.489-13.815-13.883a21.216,21.216,0,0,1,4.343-19.32c4.514-5.1,11.763-7.42,18.5-7.01A24.788,24.788,0,0,1-29.623-54.64Z" transform="translate(70.531 63.235)" fill="#ff7200"/>
    </g>
    <path id="squircle_4_" data-name="squircle (4)" d="M0,21.642C0,0,0,0,21.288,0S42.576,0,42.576,21.642s0,21.642-21.288,21.642S0,43.283,0,21.642" transform="translate(1227 119.288) rotate(45)" fill="#f00010"/>
    <path id="squircle_6_" data-name="squircle (6)" d="M0,19.115C0,14.91,15.059,0,19.306,0S38.612,14.91,38.612,19.115,23.553,38.231,19.306,38.231,0,23.321,0,19.115" transform="translate(1626.865 594.892) rotate(45)" fill="#f05ffa"/>
    <path id="squircle_5_" data-name="squircle (5)" d="M0,22.212C0,19.1,24.392,0,28.363,0S56.726,19.1,56.726,22.212,32.334,44.424,28.363,44.424,0,25.321,0,22.212" transform="translate(758.888 167) rotate(45)" fill="#fadb5f"/>
    <path id="squircle_5_2" data-name="squircle (5)" d="M0,37.323C0,32.1,34.83,0,40.5,0S81,32.1,81,37.323,46.17,74.647,40.5,74.647,0,42.549,0,37.323" transform="translate(1828.724 885.603) rotate(45)" fill="#5febfa"/>
    <path id="squircle_1_" data-name="squircle (1)" d="M0,47.25C0,25.042,22.8,0,43.01,0s43.01,25.042,43.01,47.25S63.224,94.5,43.01,94.5,0,69.458,0,47.25" transform="translate(1732.931 167)" fill="#00f812"/>
    <path id="squircle_1_2" data-name="squircle (1)" d="M0,20.25C0,10.732,10.945,0,20.651,0S41.3,10.732,41.3,20.25,30.357,40.5,20.651,40.5,0,29.767,0,20.25" transform="translate(862.181 450.814)" fill="#444644"/>
    <path id="squircle" d="M0,7.349C0,4.483,4.983,0,8.168,0s8.168,4.483,8.168,7.349S11.354,14.7,8.168,14.7,0,10.215,0,7.349" transform="translate(808.664 851.086)" fill="#c25ffa"/>
    <path id="squircle-2" data-name="squircle" d="M0,27.493C0,16.771,18.641,0,30.559,0S61.119,16.771,61.119,27.493,42.477,54.987,30.559,54.987,0,38.216,0,27.493" transform="translate(0 1025.013)" fill="blue"/>
    <path id="squircle_6_2" data-name="squircle (6)" d="M0,14.679C0,11.449,11.688,0,14.985,0S29.97,11.449,29.97,14.679,18.282,29.358,14.985,29.358,0,17.908,0,14.679" transform="translate(285.423 697) rotate(45)" fill="#fff700"/>
  </g>
</svg>
