<svg xmlns="http://www.w3.org/2000/svg" xmlns:xlink="http://www.w3.org/1999/xlink" width="51.973" height="51.97" viewBox="0 0 51.973 51.97">
  <defs>
    <linearGradient id="linear-gradient" x1="0.5" x2="0.5" y2="1" gradientUnits="objectBoundingBox">
      <stop offset="0" stop-color="#a4a4a4"/>
      <stop offset="0.63" stop-color="#7f7f7f"/>
      <stop offset="1" stop-color="#6f6f6f"/>
    </linearGradient>
    <linearGradient id="linear-gradient-2" x1="0.5" x2="0.5" y2="1" gradientUnits="objectBoundingBox">
      <stop offset="0" stop-color="#42d778"/>
      <stop offset="1" stop-color="#34b171"/>
    </linearGradient>
    <linearGradient id="linear-gradient-3" x1="0.5" y1="0.756" x2="0.5" y2="0.144" gradientUnits="objectBoundingBox">
      <stop offset="0" stop-color="#37ab6a"/>
      <stop offset="0.422" stop-color="#39b66f"/>
      <stop offset="1" stop-color="#3ac074"/>
    </linearGradient>
    <linearGradient id="linear-gradient-4" x1="0.5" y1="1" x2="0.5" gradientUnits="objectBoundingBox">
      <stop offset="0" stop-color="#ffc662"/>
      <stop offset="0.004" stop-color="#ffc662"/>
      <stop offset="0.609" stop-color="#ffc582"/>
      <stop offset="1" stop-color="#ffc491"/>
    </linearGradient>
    <linearGradient id="linear-gradient-5" x1="0.5" y1="1" x2="0.5" gradientUnits="objectBoundingBox">
      <stop offset="0" stop-color="#ff634d"/>
      <stop offset="0.204" stop-color="#fe6464"/>
      <stop offset="0.521" stop-color="#fc6581"/>
      <stop offset="0.794" stop-color="#fa6694"/>
      <stop offset="0.989" stop-color="#fa669a"/>
      <stop offset="1" stop-color="#fa669a"/>
    </linearGradient>
    <linearGradient id="linear-gradient-6" x1="0.5" x2="0.5" y2="1" gradientUnits="objectBoundingBox">
      <stop offset="0" stop-color="#b2b2b2"/>
      <stop offset="0.594" stop-color="#949494"/>
      <stop offset="1" stop-color="#848484"/>
    </linearGradient>
  </defs>
  <g id="pencil" transform="translate(-320 -352)">
    <path id="Path_231" data-name="Path 231" d="M8.02,50.8l-1,5A1,1,0,0,0,8.2,56.98l5-1Z" transform="translate(313 346.97)" fill="url(#linear-gradient)"/>
    <path id="Path_232" data-name="Path 232" d="M47.707,28.293l-12-12a1,1,0,0,0-1.414,0l-25,25a1,1,0,0,0,0,1.414l12,12a1,1,0,0,0,1.414,0l25-25A1,1,0,0,0,47.707,28.293Z" transform="translate(313 346.97)" fill="url(#linear-gradient-2)"/>
    <path id="Path_233" data-name="Path 233" d="M43.707,24.293l-4-4a1,1,0,0,0-1.414,0l-25,25a1,1,0,0,0,0,1.414l4,4a1,1,0,0,0,1.414,0l25-25A1,1,0,0,0,43.707,24.293Z" transform="translate(313 346.97)" fill="url(#linear-gradient-3)"/>
    <path id="Path_234" data-name="Path 234" d="M21.986,47.836A1,1,0,0,0,21,47H17V43a1,1,0,0,0-.836-.986l-6-1a1,1,0,0,0-1.159.876l-1,9a1,1,0,0,0,.287.817l4,4A1,1,0,0,0,13,56a1.013,1.013,0,0,0,.11-.006l9-1a1,1,0,0,0,.876-1.159Z" transform="translate(313 346.97)" fill="url(#linear-gradient-4)"/>
    <path id="Path_235" data-name="Path 235" d="M57.6,13.188,50.812,6.4a4.688,4.688,0,0,0-6.623,0l-3.4,3.4a1,1,0,0,0,0,1.414l12,12a1,1,0,0,0,1.414,0l3.4-3.4A4.688,4.688,0,0,0,57.6,13.188Z" transform="translate(313 346.97)" fill="url(#linear-gradient-5)"/>
    <path id="Path_236" data-name="Path 236" d="M53.957,21.543l-11.5-11.5a3.478,3.478,0,0,0-4.914,0L35.016,12.57a3.48,3.48,0,0,0,0,4.914l11.5,11.5a3.478,3.478,0,0,0,4.914,0l2.527-2.527a3.477,3.477,0,0,0,0-4.914Z" transform="translate(313 346.97)" fill="url(#linear-gradient-6)"/>
  </g>
</svg>
