<svg xmlns="http://www.w3.org/2000/svg" xmlns:xlink="http://www.w3.org/1999/xlink" width="54.003" height="53.108" viewBox="0 0 54.003 53.108">
  <defs>
    <radialGradient id="radial-gradient" cx="-3.778" cy="-3.629" r="2.852" gradientTransform="matrix(1, 0, 0, -1, 0, -6.456)" gradientUnits="objectBoundingBox">
      <stop offset="0" stop-color="#f4e9c3"/>
      <stop offset="0.219" stop-color="#f8eecd"/>
      <stop offset="0.644" stop-color="#fdf4dc"/>
      <stop offset="1" stop-color="#fff6e1"/>
    </radialGradient>
    <linearGradient id="linear-gradient" x1="0.5" y1="-0.282" x2="0.5" y2="1.416" gradientUnits="objectBoundingBox">
      <stop offset="0" stop-color="#155cde"/>
      <stop offset="0.278" stop-color="#1f7fe5"/>
      <stop offset="0.569" stop-color="#279ceb"/>
      <stop offset="0.82" stop-color="#2cafef"/>
      <stop offset="1" stop-color="#2eb5f0"/>
    </linearGradient>
    <linearGradient id="linear-gradient-2" x1="0.5" y1="-3.689" x2="0.5" y2="1.917" xlink:href="#linear-gradient"/>
    <linearGradient id="linear-gradient-3" x1="0.5" y1="-3.027" x2="0.5" y2="1.395" gradientUnits="objectBoundingBox">
      <stop offset="0" stop-color="#155cde"/>
      <stop offset="0.486" stop-color="#2185e6"/>
      <stop offset="1" stop-color="#2eb5f0"/>
    </linearGradient>
  </defs>
  <g id="quote_left" transform="translate(-333.997 -193.892)">
    <circle id="Ellipse_3" data-name="Ellipse 3" cx="3.5" cy="3.5" r="3.5" transform="translate(381 240)" fill="url(#radial-gradient)"/>
    <path id="Path_241" data-name="Path 241" d="M30.01,41.61c0,.13,0,.26-.01.39,0,.1-.01.21-.01.31-.02.23-.04.47-.07.69A10.919,10.919,0,0,1,19,53c-6,0-10.64-3.8-11.74-9-.07-.33-.12-.66-.16-1a10.584,10.584,0,0,1-.09-1.39c0-.22-.02-1.13-.01-1.38v-.12l.06-1.89.07-1.04.1-1.14A30.852,30.852,0,0,1,7.97,32c.03-.14.06-.27.1-.41.05-.2.11-.4.17-.59a34.342,34.342,0,0,1,3.19-7.65,33.5,33.5,0,0,1,5.33-6.91,36.944,36.944,0,0,1,6.55-5.02l.04-.02a3.231,3.231,0,0,1,4.06,4.97c-.88.91-1.81,1.85-2.49,2.65-.35.43-.69.87-1.03,1.3-.31.46-.65.89-.94,1.35A54.681,54.681,0,0,0,19,30h.05A12.036,12.036,0,0,1,30,41.04C30.01,41.23,30.01,41.42,30.01,41.61Z" transform="translate(327 183)" fill="url(#linear-gradient)"/>
    <path id="Path_242" data-name="Path 242" d="M16.99,33.76A2.6,2.6,0,0,1,14.36,36H11.5a1.5,1.5,0,0,0,0,3H12a2,2,0,0,1,1.97,2.34A2.072,2.072,0,0,1,11.89,43H7.1a10.584,10.584,0,0,1-.09-1.39c0-.22-.02-1.13-.01-1.38v-.12l.06-1.89.07-1.04.1-1.14A30.852,30.852,0,0,1,7.97,32c.03-.14.06-.27.1-.41.05-.2.11-.4.17-.59H14.5A2.5,2.5,0,0,1,16.99,33.76Z" transform="translate(327 183)" fill="url(#linear-gradient-2)"/>
    <path id="Path_243" data-name="Path 243" d="M30,42c0,.1-.01.21-.01.31-.02.23-.04.47-.07.69A10.919,10.919,0,0,1,19,53a2.015,2.015,0,0,1-2-2,2.006,2.006,0,0,1,2-2h3.5a1.5,1.5,0,0,0,0-3H22a2.015,2.015,0,0,1-2-2,2.006,2.006,0,0,1,2-2Z" transform="translate(327 183)" fill="url(#linear-gradient-3)"/>
    <path id="Path_244" data-name="Path 244" d="M57.01,41.61c0,.13,0,.26-.01.39,0,.1-.01.21-.01.31-.02.23-.04.47-.07.69A10.919,10.919,0,0,1,46,53c-6,0-10.64-3.8-11.74-9-.07-.33-.12-.66-.16-1a10.584,10.584,0,0,1-.09-1.39c0-.22-.02-1.13-.01-1.38v-.12l.06-1.89.07-1.04.1-1.14A30.852,30.852,0,0,1,34.97,32c.03-.14.06-.27.1-.41.05-.2.11-.4.17-.59a34.342,34.342,0,0,1,3.19-7.65,33.5,33.5,0,0,1,5.33-6.91,36.944,36.944,0,0,1,6.55-5.02l.04-.02a3.231,3.231,0,0,1,4.06,4.97c-.88.91-1.81,1.85-2.49,2.65-.35.43-.69.87-1.03,1.3-.31.46-.65.89-.94,1.35A54.681,54.681,0,0,0,46,30h.05A12.036,12.036,0,0,1,57,41.04C57.01,41.23,57.01,41.42,57.01,41.61Z" transform="translate(327 183)" fill="url(#linear-gradient)"/>
    <path id="Path_245" data-name="Path 245" d="M43.99,33.76A2.6,2.6,0,0,1,41.36,36H38.5a1.5,1.5,0,0,0,0,3H39a2,2,0,0,1,1.97,2.34A2.072,2.072,0,0,1,38.89,43H34.1a10.584,10.584,0,0,1-.09-1.39c0-.22-.02-1.13-.01-1.38v-.12l.06-1.89.07-1.04.1-1.14A30.852,30.852,0,0,1,34.97,32c.03-.14.06-.27.1-.41.05-.2.11-.4.17-.59H41.5A2.5,2.5,0,0,1,43.99,33.76Z" transform="translate(327 183)" fill="url(#linear-gradient-2)"/>
    <path id="Path_246" data-name="Path 246" d="M57,42c0,.1-.01.21-.01.31-.02.23-.04.47-.07.69A10.919,10.919,0,0,1,46,53a2.015,2.015,0,0,1-2-2,2.006,2.006,0,0,1,2-2h3.5a1.5,1.5,0,0,0,0-3H49a2.015,2.015,0,0,1-2-2,2.006,2.006,0,0,1,2-2Z" transform="translate(327 183)" fill="url(#linear-gradient-3)"/>
  </g>
</svg>
