<svg xmlns="http://www.w3.org/2000/svg" xmlns:xlink="http://www.w3.org/1999/xlink" width="32" height="52" viewBox="0 0 32 52">
  <defs>
    <linearGradient id="linear-gradient" x1="0.5" y1="1.179" x2="0.5" y2="0.179" gradientUnits="objectBoundingBox">
      <stop offset="0" stop-color="#155cde"/>
      <stop offset="0.278" stop-color="#1f7fe5"/>
      <stop offset="0.569" stop-color="#279ceb"/>
      <stop offset="0.82" stop-color="#2cafef"/>
      <stop offset="1" stop-color="#2eb5f0"/>
    </linearGradient>
  </defs>
  <g id="todo_list" transform="translate(-307 -264)">
    <path id="Path_250" data-name="Path 250" d="M49.758,29.538,25.643,7.075A3.947,3.947,0,0,0,19,9.984V43.073a3.9,3.9,0,0,0,5.461,3.592l6.672-3.126a1.981,1.981,0,0,1,2.577.976l5.159,11.052A4.232,4.232,0,0,0,45.1,57.25a4.371,4.371,0,0,0,1.372-5.48L41.585,41.283a2,2,0,0,1,1.009-2.7L48.667,36A3.935,3.935,0,0,0,49.758,29.538Z" transform="translate(288 258)" fill="url(#linear-gradient)"/>
  </g>
</svg>
