<svg xmlns="http://www.w3.org/2000/svg" xmlns:xlink="http://www.w3.org/1999/xlink" width="53" height="42" viewBox="0 0 53 42">
  <defs>
    <linearGradient id="linear-gradient" x1="0.5" y1="1.193" x2="0.5" y2="0.193" gradientUnits="objectBoundingBox">
      <stop offset="0" stop-color="#155cde"/>
      <stop offset="0.278" stop-color="#1f7fe5"/>
      <stop offset="0.569" stop-color="#279ceb"/>
      <stop offset="0.82" stop-color="#2cafef"/>
      <stop offset="1" stop-color="#2eb5f0"/>
    </linearGradient>
  </defs>
  <g id="twitter" transform="translate(-368 -270)">
    <path id="Path_252" data-name="Path 252" d="M57.667,19.058a21.9,21.9,0,0,1-4.636.956,10.257,10.257,0,0,0,3.78-3.441,1,1,0,0,0-1.25-1.469,18.61,18.61,0,0,1-5.213,1.721A10.949,10.949,0,0,0,32.2,26.975,26.547,26.547,0,0,1,11.736,16.407,1,1,0,0,0,10,16.641,10.538,10.538,0,0,0,9,21c0,.12,0,.23.01.34A9.7,9.7,0,0,0,9.84,25a9.967,9.967,0,0,0,4.77,4.98c-.2.01-.4.02-.61.02-2,0-2.658-.685-3.743-.967a1,1,0,0,0-1.247,1.09,11.029,11.029,0,0,0,3.029,6.047,9.924,9.924,0,0,0,6.35,2.81A9.9,9.9,0,0,1,14,40H13a1.007,1.007,0,0,0-.886,1.474,10.864,10.864,0,0,0,9.722,5.516A25.851,25.851,0,0,1,8,51H7a1,1,0,0,0-1,1,.986.986,0,0,0,.734.946l0,.017A48.71,48.71,0,0,0,23,56,30.992,30.992,0,0,0,53.99,25.57c.01-.19.01-.38.01-.57s0-.38-.01-.57c-.014-.275-.048-.545-.082-.815a11.353,11.353,0,0,0,4.811-2.926A1,1,0,0,0,57.667,19.058Z" transform="translate(362 256)" fill="url(#linear-gradient)"/>
  </g>
</svg>
