<svg xmlns="http://www.w3.org/2000/svg" xmlns:xlink="http://www.w3.org/1999/xlink" width="54" height="50" viewBox="0 0 54 50">
  <defs>
    <radialGradient id="radial-gradient" cx="3.889" cy="-2.222" r="2.986" gradientUnits="objectBoundingBox">
      <stop offset="0" stop-color="#f4e9c3"/>
      <stop offset="0.219" stop-color="#f8eecd"/>
      <stop offset="0.644" stop-color="#fdf4dc"/>
      <stop offset="1" stop-color="#fff6e1"/>
    </radialGradient>
    <linearGradient id="linear-gradient" x1="0.5" y1="1.138" x2="0.5" y2="0.138" gradientUnits="objectBoundingBox">
      <stop offset="0" stop-color="#155cde"/>
      <stop offset="0.278" stop-color="#1f7fe5"/>
      <stop offset="0.569" stop-color="#279ceb"/>
      <stop offset="0.82" stop-color="#2cafef"/>
      <stop offset="1" stop-color="#2eb5f0"/>
    </linearGradient>
  </defs>
  <g id="up_left" transform="translate(-279 -615)">
    <path id="Path_268" data-name="Path 268" d="M5.5,61h0A4.5,4.5,0,0,1,1,56.5H1A4.5,4.5,0,0,1,5.5,52h0A4.5,4.5,0,0,1,10,56.5h0A4.5,4.5,0,0,1,5.5,61Z" transform="translate(278 604)" fill="url(#radial-gradient)"/>
    <path id="Path_270" data-name="Path 270" d="M50,53a5,5,0,0,1-5-5A19.021,19.021,0,0,0,26,29h0v5.539a2.457,2.457,0,0,1-4.089,1.836L9.671,25.495a2,2,0,0,1,0-2.99l12.24-10.88A2.457,2.457,0,0,1,26,13.461V19h0A29.032,29.032,0,0,1,55,48,5,5,0,0,1,50,53Z" transform="translate(278 604)" fill="url(#linear-gradient)"/>
  </g>
</svg>
