<svg xmlns="http://www.w3.org/2000/svg" xmlns:xlink="http://www.w3.org/1999/xlink" viewBox="0 0 30 30" fill="#FFFFFF">
  <path d="M2 2 A 1.0001 1.0001 0 1 0 2 4L3.8789062 4C4.1048086 4 4.2933102 4.1414634 4.3574219 4.359375L8.6191406 18.847656C8.993174 20.11937 10.169409 21 11.496094 21L22.4375 21C23.80881 21 25.015133 20.05834 25.347656 18.728516L25.347656 18.726562L27.970703 8.2421875 A 1.0001 1.0001 0 0 0 27 7L7.21875 7L6.2773438 3.7949219 A 1.0001 1.0001 0 0 0 6.2753906 3.7949219C5.9634991 2.7348335 4.9830041 2 3.8789062 2L2 2 z M 17 9C17.552 9 18 9.447 18 10L18 13L21 13C21.552 13 22 13.447 22 14C22 14.553 21.552 15 21 15L18 15L18 18C18 18.553 17.552 19 17 19C16.448 19 16 18.553 16 18L16 15L13 15C12.448 15 12 14.553 12 14C12 13.447 12.448 13 13 13L16 13L16 10C16 9.447 16.448 9 17 9 z M 12 23 A 2 2 0 0 0 10 25 A 2 2 0 0 0 12 27 A 2 2 0 0 0 14 25 A 2 2 0 0 0 12 23 z M 22 23 A 2 2 0 0 0 20 25 A 2 2 0 0 0 22 27 A 2 2 0 0 0 24 25 A 2 2 0 0 0 22 23 z" fill="#FFFFFF" />
</svg>