<svg xmlns="http://www.w3.org/2000/svg" xmlns:xlink="http://www.w3.org/1999/xlink" width="54.022" height="54.001" viewBox="0 0 54.022 54.001">
  <defs>
    <linearGradient id="linear-gradient" x1="0.5" x2="0.5" y2="1" gradientUnits="objectBoundingBox">
      <stop offset="0" stop-color="#42d778"/>
      <stop offset="0.996" stop-color="#34b171"/>
      <stop offset="1" stop-color="#34b171"/>
    </linearGradient>
  </defs>
  <g id="approval" transform="translate(-692.989 -445.997)">
    <path id="Path_269" data-name="Path 269" d="M33.49,4.662l3.387,3.78a2,2,0,0,0,2.086.574l4.964-1.551a2,2,0,0,1,2.548,1.471L47.587,13.9A2,2,0,0,0,49.1,15.411l4.97,1.114a2,2,0,0,1,1.474,2.54l-1.533,4.978a2,2,0,0,0,.572,2.074l3.767,3.4a2,2,0,0,1,0,2.971l-3.767,3.4a2,2,0,0,0-.572,2.074l1.533,4.978a2,2,0,0,1-1.474,2.54L49.1,46.584A2,2,0,0,0,47.587,48.1l-1.112,4.961a2,2,0,0,1-2.548,1.471l-4.964-1.551a2,2,0,0,0-2.086.574l-3.387,3.78a2,2,0,0,1-2.979,0l-3.387-3.78a2,2,0,0,0-2.086-.574L20.074,54.53a2,2,0,0,1-2.548-1.471L16.414,48.1A2,2,0,0,0,14.9,46.584L9.93,45.47a2,2,0,0,1-1.474-2.54l1.533-4.978a2,2,0,0,0-.572-2.074l-3.767-3.4a2,2,0,0,1,0-2.971l3.767-3.4a2,2,0,0,0,.572-2.074L8.456,19.065a2,2,0,0,1,1.474-2.54l4.97-1.114A2,2,0,0,0,16.414,13.9l1.112-4.961a2,2,0,0,1,2.548-1.471l4.964,1.551a2,2,0,0,0,2.086-.574l3.387-3.78A2,2,0,0,1,33.49,4.662Z" transform="translate(688 442)" fill="url(#linear-gradient)"/>
    <g id="Group_32" data-name="Group 32" transform="translate(688 442)">
      <path id="Path_270" data-name="Path 270" d="M42.695,21.733,27.5,36.946l-5.235-5.22a2.5,2.5,0,0,0-3.533,0h0a2.5,2.5,0,0,0,0,3.538l7,6.985a2.5,2.5,0,0,0,3.534,0L46.232,25.267a2.5,2.5,0,0,0,0-3.535h0A2.5,2.5,0,0,0,42.695,21.733Z" fill="#fff"/>
    </g>
  </g>
</svg>
