<svg xmlns="http://www.w3.org/2000/svg" xmlns:xlink="http://www.w3.org/1999/xlink" viewBox="0 0 64 64"><radialGradient id="exx7qOUmcKC58nWhni~kIa" cx="32.417" cy="29.787" r="45.744" gradientTransform="matrix(1 0 0 -1 0 64)" gradientUnits="userSpaceOnUse"><stop offset="0" stop-color="#b6edfd"/><stop offset=".642" stop-color="#d1f4ff"/><stop offset="1" stop-color="#e3f8ff"/></radialGradient><path fill="url(#exx7qOUmcKC58nWhni~kIa)" d="M59.828,20h-5.13c-1.733,0-3.347-1.166-3.643-2.873C50.671,14.918,52.362,13,54.5,13h4.285c2.612,0,4.944-1.909,5.191-4.509C64.261,5.509,61.923,3,59,3H27.215c-2.612,0-4.944,1.909-5.191,4.509C21.739,10.491,24.077,13,27,13h0.302c1.895,0,3.594,1.419,3.693,3.312C31.101,18.33,29.495,20,27.5,20H7.215c-2.612,0-4.944,1.909-5.191,4.509C1.739,27.491,4.077,30,7,30h4.302c1.895,0,3.594,1.419,3.693,3.312C15.101,35.33,13.495,37,11.5,37H6.252c-3.285,0-6.15,2.532-6.249,5.815C-0.099,46.213,2.625,49,6,49h13v4H9.693c-2.35,0-4.449,1.718-4.672,4.058C4.765,59.742,6.869,62,9.5,62H20h1h24.748c3.285,0,6.15-2.532,6.249-5.815C52.099,52.787,49.375,50,46,50l0,0c-2.209,0-4-1.791-4-4l0,0c0-2.209,1.791-4,4-4h5.307c2.35,0,4.449-1.718,4.672-4.058C56.235,35.258,54.131,33,51.5,33h-0.857c-1.308,0-2.499-0.941-2.63-2.243C47.863,29.261,49.034,28,50.5,28H60c2.339,0,4.209-2.008,3.981-4.393C63.783,21.527,61.917,20,59.828,20z"/><radialGradient id="exx7qOUmcKC58nWhni~kIb" cx="32.417" cy="29.787" r="45.744" gradientTransform="matrix(1 0 0 -1 0 64)" gradientUnits="userSpaceOnUse"><stop offset="0" stop-color="#b6edfd"/><stop offset=".642" stop-color="#d1f4ff"/><stop offset="1" stop-color="#e3f8ff"/></radialGradient><path fill="url(#exx7qOUmcKC58nWhni~kIb)" d="M13,13L13,13c2.761,0,5-2.239,5-5l0,0c0-2.761-2.239-5-5-5l0,0c-2.761,0-5,2.239-5,5l0,0C8,10.761,10.239,13,13,13z"/><linearGradient id="exx7qOUmcKC58nWhni~kIc" x1="31.793" x2="31.793" y1="35.94" y2="-5.729" gradientTransform="scale(1 -1) rotate(-45 -44.755 -.5)" gradientUnits="userSpaceOnUse"><stop offset="0" stop-color="#3fd578"/><stop offset="1" stop-color="#38af71"/></linearGradient><path fill="url(#exx7qOUmcKC58nWhni~kIc)" d="M33.929,47.093l-9.731,9.731c-1.567,1.567-4.107,1.568-5.674,0L7.176,45.476c-1.568-1.568-1.567-4.107,0-5.674l9.731-9.731c3.369-3.369,7.639-5.71,12.292-6.745c0.695-0.156,1.383-0.347,2.057-0.581l10.001,10.001c-0.234,0.674-0.426,1.362-0.581,2.057c-0.518,2.319-1.362,4.554-2.497,6.625C37.043,43.497,35.618,45.405,33.929,47.093z"/><linearGradient id="exx7qOUmcKC58nWhni~kId" x1="26.278" x2="26.278" y1="43.738" y2="-5.705" gradientTransform="scale(1 -1) rotate(-45 -44.755 -.5)" gradientUnits="userSpaceOnUse"><stop offset="0" stop-color="#5add8c"/><stop offset=".996" stop-color="#4ebd86"/><stop offset="1" stop-color="#4ebd86"/></linearGradient><path fill="url(#exx7qOUmcKC58nWhni~kId)" d="M16.176,49.242c-1.362,1.504-3.681,1.553-5.1,0.135l-3.901-3.901c-1.568-1.568-1.567-4.107,0-5.674l9.731-9.731c1.263-1.263,2.653-2.383,4.149-3.341l1.724,1.724c0.858,0.858,0.78,2.312-0.262,3.057c-0.809,0.582-1.943,0.412-2.653-0.298l-0.028-0.028c-0.589-0.589-1.539-0.589-2.128,0s-0.589,1.539,0,2.128l3.298,3.298c1.043,1.043,0.979,2.766-0.192,3.724c-1.014,0.83-2.525,0.653-3.454-0.277l-0.255-0.255c-0.39-0.39-0.901-0.589-1.418-0.582c-0.518-0.007-1.029,0.192-1.419,0.582c-0.78,0.78-0.78,2.057,0,2.837l1.632,1.63C17.247,45.618,17.446,47.831,16.176,49.242z"/><linearGradient id="exx7qOUmcKC58nWhni~kIe" x1="31.788" x2="31.788" y1="57.431" y2="30.768" gradientTransform="scale(1 -1) rotate(-45 -44.755 -.5)" gradientUnits="userSpaceOnUse"><stop offset="0" stop-color="#fdbb83"/><stop offset="0" stop-color="#fdbb83"/><stop offset=".359" stop-color="#fcbc75"/><stop offset=".996" stop-color="#fdbe50"/><stop offset="1" stop-color="#fdbe50"/></linearGradient><path fill="url(#exx7qOUmcKC58nWhni~kIe)" d="M41.632,31.702l-9.341-9.341c0.816-0.319,1.596-0.702,2.348-1.128c1.56-0.879,3.007-1.972,4.284-3.249l7.972-7.972l7.093,7.093l-7.972,7.972c-1.369,1.369-2.518,2.915-3.426,4.603C42.235,30.333,41.916,31.007,41.632,31.702z"/><linearGradient id="exx7qOUmcKC58nWhni~kIf" x1="28.227" x2="28.227" y1="32.703" y2="40.979" gradientTransform="scale(1 -1) rotate(-45 -44.755 -.5)" gradientUnits="userSpaceOnUse"><stop offset="0" stop-color="#155cdc"/><stop offset=".278" stop-color="#1e7fe3"/><stop offset=".569" stop-color="#279ae9"/><stop offset=".82" stop-color="#2eaded"/><stop offset="1" stop-color="#2fb3ee"/></linearGradient><path fill="url(#exx7qOUmcKC58nWhni~kIf)" d="M37.596,27.95l-1.497,0.66l-4.022,1.766l-3.085-7.001c0.071-0.014,0.135-0.036,0.206-0.05c1.922-0.433,3.759-1.135,5.44-2.092l2.702,6.135L37.596,27.95z"/><linearGradient id="exx7qOUmcKC58nWhni~kIg" x1="35.956" x2="35.956" y1="32.704" y2="40.63" gradientTransform="scale(1 -1) rotate(-45 -44.755 -.5)" gradientUnits="userSpaceOnUse"><stop offset="0" stop-color="#155cdc"/><stop offset=".278" stop-color="#1e7fe3"/><stop offset=".569" stop-color="#279ae9"/><stop offset=".82" stop-color="#2eaded"/><stop offset="1" stop-color="#2fb3ee"/></linearGradient><path fill="url(#exx7qOUmcKC58nWhni~kIg)" d="M40.54,35.362l-6.206-2.731l1.766-4.022l0.66-1.497l0.582,0.255l5.249,2.312c-0.866,1.603-1.525,3.327-1.915,5.121C40.632,34.986,40.59,35.17,40.54,35.362z"/><linearGradient id="exx7qOUmcKC58nWhni~kIh" x1="31.793" x2="31.793" y1="28.46" y2="40.723" gradientTransform="scale(1 -1) rotate(-45 -44.755 -.5)" gradientUnits="userSpaceOnUse"><stop offset="0" stop-color="#155cdc"/><stop offset=".278" stop-color="#1e7fe3"/><stop offset=".569" stop-color="#279ae9"/><stop offset=".82" stop-color="#2eaded"/><stop offset="1" stop-color="#2fb3ee"/></linearGradient><path fill="url(#exx7qOUmcKC58nWhni~kIh)" d="M32,26.326c2.35-2.35,5.526-2.985,7.093-1.419c1.567,1.567,0.932,4.742-1.419,7.093c-2.35,2.35-5.526,2.985-7.093,1.419C29.015,31.851,29.65,28.676,32,26.326z"/><linearGradient id="exx7qOUmcKC58nWhni~kIi" x1="31.793" x2="31.793" y1="56.577" y2="64.602" gradientTransform="scale(1 -1) rotate(-45 -44.755 -.5)" gradientUnits="userSpaceOnUse"><stop offset="0" stop-color="#fd9557"/><stop offset="1" stop-color="#fdb45b"/><stop offset="1" stop-color="#fdb45b"/></linearGradient><path fill="url(#exx7qOUmcKC58nWhni~kIi)" d="M53.988,7.175l2.837,2.837c1.567,1.567,1.567,4.107,0,5.674l-1.419,1.419c-0.783,0.783-2.054,0.783-2.837,0l-5.674-5.674c-0.783-0.783-0.783-2.054,0-2.837l1.419-1.419C49.88,5.608,52.421,5.608,53.988,7.175z"/><linearGradient id="exx7qOUmcKC58nWhni~kIj" x1="31.793" x2="31.793" y1="24.362" y2="3.312" gradientTransform="scale(1 -1) rotate(-45 -44.755 -.5)" gradientUnits="userSpaceOnUse"><stop offset="0" stop-color="#fdbb83"/><stop offset="0" stop-color="#fdbb83"/><stop offset=".359" stop-color="#fcbc75"/><stop offset=".996" stop-color="#fdbe50"/><stop offset="1" stop-color="#fdbe50"/></linearGradient><path fill="url(#exx7qOUmcKC58nWhni~kIj)" d="M23.489,33.418l7.093,7.093c1.175,1.175,1.175,3.08,0,4.256l-6.383,6.383c-1.175,1.175-3.08,1.175-4.256,0l-7.093-7.093c-1.175-1.175-1.175-3.08,0-4.256l6.383-6.383C20.408,32.243,22.314,32.243,23.489,33.418z"/><linearGradient id="exx7qOUmcKC58nWhni~kIk" x1="28.107" x2="28.107" y1="20.381" y2="4.944" gradientTransform="scale(1 -1) rotate(-45 -44.755 -.5)" gradientUnits="userSpaceOnUse"><stop offset="0" stop-color="#fdbb83"/><stop offset="0" stop-color="#fdbb83"/><stop offset=".359" stop-color="#fcbc75"/><stop offset=".996" stop-color="#fdbe50"/><stop offset="1" stop-color="#fdbe50"/></linearGradient><path fill="url(#exx7qOUmcKC58nWhni~kIk)" d="M16.857,48.065l-4.007-4.007c-1.177-1.177-1.177-3.078,0-4.256l5.674-5.674l2.482,2.482c1.043,1.043,0.979,2.766-0.192,3.724c-1.014,0.83-2.525,0.653-3.454-0.277l-0.255-0.255c-0.39-0.39-0.901-0.589-1.418-0.582c-0.518-0.007-1.029,0.192-1.419,0.582c-0.78,0.78-0.78,2.057,0,2.837L15.9,44.27C16.907,45.277,17.276,46.781,16.857,48.065z"/><linearGradient id="exx7qOUmcKC58nWhni~kIl" x1="28.107" x2="28.107" y1="-1.433" y2="47.181" gradientTransform="scale(1 -1) rotate(-45 -44.755 -.5)" gradientUnits="userSpaceOnUse"><stop offset="0" stop-color="#fdcf7a"/><stop offset=".004" stop-color="#fdcf7a"/><stop offset=".609" stop-color="#fcce94"/><stop offset="1" stop-color="#fdcda2"/><stop offset="1" stop-color="#fdcda2"/></linearGradient><path fill="url(#exx7qOUmcKC58nWhni~kIl)" d="M16.857,48.065l-4.007-4.007c-1.177-1.177-1.177-3.078,0-4.256l5.674-5.674l2.482,2.482c1.043,1.043,0.979,2.766-0.192,3.724c-1.014,0.83-2.525,0.653-3.454-0.277l-0.255-0.255c-0.39-0.39-0.901-0.589-1.418-0.582c-0.518-0.007-1.029,0.192-1.419,0.582c-0.78,0.78-0.78,2.057,0,2.837L15.9,44.27C16.907,45.277,17.276,46.781,16.857,48.065z"/></svg>