<svg xmlns="http://www.w3.org/2000/svg" xmlns:xlink="http://www.w3.org/1999/xlink" viewBox="0 0 64 64"><radialGradient id="PiqMaOar0oHoLEOFUxUA7a" cx="31.894" cy="32.702" r="22.468" gradientTransform="matrix(1 0 0 -1 0 66)" gradientUnits="userSpaceOnUse"><stop offset="0" stop-color="#eed7a2"/><stop offset=".106" stop-color="#f1dcab"/><stop offset=".437" stop-color="#f8e8c3"/><stop offset=".744" stop-color="#fcefd2"/><stop offset="1" stop-color="#fef2d7"/></radialGradient><path fill="url(#PiqMaOar0oHoLEOFUxUA7a)" d="M63.95,36.13c-0.3,1.7-1.91,2.87-3.65,2.87h-2.8c-2.14,0-3.83,1.92-3.45,4.13c0.3,1.7,1.91,2.87,3.65,2.87H59c1.83,0,3.28,1.64,2.95,3.54C61.7,51,60.32,52,58.83,52H56c-1.22,0-2.18,1.08-1.97,2.33c0.16,0.99,1.08,1.67,2.08,1.67H57c2.34,0,4.21,2.01,3.98,4.39c-0.2,2.08-2.06,3.61-4.15,3.61H7.5C5.57,64,4,62.43,4,60.5S5.57,57,7.5,57h1c0.69,0,1.32-0.28,1.77-0.73C10.72,55.82,11,55.19,11,54.5s-0.28-1.32-0.73-1.77C9.82,52.28,9.19,52,8.5,52H5c-2.92,0-5.26-2.51-4.98-5.49C0.27,43.91,2.6,42,5.22,42H6.5c1.93,0,3.5-1.57,3.5-3.5S8.43,35,6.5,35H5c-1.71,0-3.09-1.43-3-3.16C2.09,30.22,3.55,29,5.17,29H7c2.34,0,4.21-2.01,3.98-4.39C10.78,22.53,8.92,21,6.83,21H5.5c-2.14,0-3.83-1.92-3.44-4.13C2.35,15.17,3.96,14,5.7,14H7c2.34,0,4.21-2.01,3.98-4.39C10.78,7.53,8.92,6,6.83,6H7C5.29,6,3.91,4.57,4,2.84C4.09,1.22,5.55,0,7.17,0H58c1.71,0,3.09,1.43,3,3.16C60.91,4.78,59.46,6,57.83,6h-0.62c-2.61,0-4.94,1.91-5.19,4.5c-0.28,2.98,2.05,5.49,4.97,5.49C58.84,16,59.5,16,59.5,16c2.63,0,4.74,2.26,4.48,4.94C63.76,23.28,61.66,25,59.31,25H55.5c-2.14,0-3.83,1.92-3.45,4.13c0.3,1.7,1.91,2.87,3.65,2.87h4.8C62.64,32,64.33,33.92,63.95,36.13z"/><linearGradient id="PiqMaOar0oHoLEOFUxUA7b" x1="22.5" x2="22.5" y1="-12.489" y2="43.69" gradientTransform="matrix(1 0 0 -1 0 66)" gradientUnits="userSpaceOnUse"><stop offset="0" stop-color="#41bfec"/><stop offset=".232" stop-color="#4cc5ef"/><stop offset=".644" stop-color="#6bd4f6"/><stop offset="1" stop-color="#8ae4fd"/></linearGradient><path fill="url(#PiqMaOar0oHoLEOFUxUA7b)" d="M32,6v52c-7.22,0-12.41-2.96-15.52-7C14.16,48.01,13,44.43,13,41.04c0-2.48,0.53-5.21,1.42-8.04c3.06-9.79,10.36-20.67,14.53-25.63C29.72,6.46,30.86,6,32,6z"/><linearGradient id="PiqMaOar0oHoLEOFUxUA7c" x1="41.5" x2="41.5" y1="-13.17" y2="80.788" gradientTransform="matrix(1 0 0 -1 0 66)" gradientUnits="userSpaceOnUse"><stop offset="0" stop-color="#155cde"/><stop offset=".122" stop-color="#196ae1"/><stop offset=".509" stop-color="#2493e9"/><stop offset=".815" stop-color="#2bacee"/><stop offset="1" stop-color="#2eb5f0"/></linearGradient><path fill="url(#PiqMaOar0oHoLEOFUxUA7c)" d="M51,41.04c0,3.39-1.16,6.97-3.48,9.96c-3.11,4.04-8.3,7-15.52,7V6c1.14,0,2.28,0.46,3.05,1.37c4.19,4.99,11.54,15.96,14.58,25.78C50.49,35.92,51,38.61,51,41.04z"/><linearGradient id="PiqMaOar0oHoLEOFUxUA7d" x1="19.502" x2="19.502" y1="7.672" y2="40.196" gradientTransform="matrix(1 0 0 -1 0 66)" gradientUnits="userSpaceOnUse"><stop offset="0" stop-color="#81dcf7"/><stop offset=".48" stop-color="#8ce1f9"/><stop offset="1" stop-color="#9ee8fd"/></linearGradient><path fill="url(#PiqMaOar0oHoLEOFUxUA7d)" d="M26,47.31c0.1,2.02-1.5,3.69-3.5,3.69h-6.02C14.16,48.01,13,44.43,13,41.04c0-2.48,0.53-5.21,1.42-8.04H20c1.85,0,3.31,1.68,2.94,3.59c-0.27,1.43-1.6,2.41-3.05,2.41H19.5c-0.69,0-1.32,0.28-1.77,0.73C17.28,40.18,17,40.81,17,41.5c0,1.38,1.12,2.5,2.5,2.5h2.8C24.2,44,25.9,45.42,26,47.31z"/><linearGradient id="PiqMaOar0oHoLEOFUxUA7e" x1="45.498" x2="45.498" y1="4.957" y2="52.079" gradientTransform="matrix(1 0 0 -1 0 66)" gradientUnits="userSpaceOnUse"><stop offset="0" stop-color="#155cde"/><stop offset=".183" stop-color="#1765e0"/><stop offset=".477" stop-color="#1e7ce5"/><stop offset=".844" stop-color="#29a3ec"/><stop offset="1" stop-color="#2eb5f0"/></linearGradient><path fill="url(#PiqMaOar0oHoLEOFUxUA7e)" d="M51,41.04c0,3.39-1.16,6.97-3.48,9.96H45c-1.85,0-3.31-1.68-2.94-3.59c0.27-1.43,1.6-2.41,3.05-2.41h0.39c0.69,0,1.32-0.28,1.77-0.73S48,43.19,48,42.5c0-1.38-1.12-2.5-2.5-2.5h-1.8c-1.9,0-3.6-1.42-3.7-3.31C39.9,34.67,41.5,33,43.5,33h6.02c0.04,0.05,0.08,0.1,0.11,0.15C50.49,35.92,51,38.61,51,41.04z"/></svg>