<svg xmlns="http://www.w3.org/2000/svg" xmlns:xlink="http://www.w3.org/1999/xlink" viewBox="0 0 30 30"><path d="M6.515625 2.515625 A 1 1 0 0 0 5.515625 3.515625 A 1 1 0 0 0 6.515625 4.515625 A 1 1 0 0 0 7.515625 3.515625 A 1 1 0 0 0 6.515625 2.515625 z M 23.484375 2.515625 A 1 1 0 0 0 22.484375 3.515625 A 1 1 0 0 0 23.484375 4.515625 A 1 1 0 0 0 24.484375 3.515625 A 1 1 0 0 0 23.484375 2.515625 z M 15 3C10.029 3 6 7.029 6 12C6 17 10 19 12 23L18 23C20 19 24 17 24 12C24 7.029 19.971 3 15 3 z M 14.636719 6.5488281L15.363281 6.5488281C15.764281 6.5488281 16.089844 6.8733906 16.089844 7.2753906L16.089844 7.7949219C16.866844 7.9959219 17.562422 8.3922656 18.107422 8.9472656L18.546875 8.6933594C18.894875 8.4923594 19.338063 8.6129375 19.539062 8.9609375L19.902344 9.5898438C20.103344 9.9378438 19.984719 10.381031 19.636719 10.582031L19.185547 10.84375C19.287547 11.21375 19.361328 11.596 19.361328 12C19.361328 12.404 19.287547 12.787203 19.185547 13.158203L19.636719 13.417969C19.984719 13.618969 20.103344 14.062156 19.902344 14.410156L19.539062 15.041016C19.338062 15.389016 18.894875 15.507641 18.546875 15.306641L18.107422 15.054688C17.562422 15.609687 16.865844 16.006031 16.089844 16.207031L16.089844 16.724609C16.089844 17.125609 15.765281 17.451172 15.363281 17.451172L14.636719 17.451172C14.235719 17.451172 13.908203 17.126609 13.908203 16.724609L13.908203 16.207031C13.131203 16.006031 12.435625 15.609688 11.890625 15.054688L11.453125 15.306641C11.105125 15.507641 10.661938 15.389016 10.460938 15.041016L10.095703 14.410156C9.8947031 14.062156 10.013328 13.618969 10.361328 13.417969L10.8125 13.158203C10.7095 12.787203 10.638672 12.404 10.638672 12C10.638672 11.596 10.7105 11.212797 10.8125 10.841797L10.361328 10.582031C10.013328 10.381031 9.8947031 9.9378437 10.095703 9.5898438L10.460938 8.9589844C10.661938 8.6109844 11.105125 8.4923594 11.453125 8.6933594L11.890625 8.9453125C12.435625 8.3903125 13.132203 7.9939688 13.908203 7.7929688L13.908203 7.2753906C13.908203 6.8743906 14.234719 6.5488281 14.636719 6.5488281 z M 15 9.8203125C13.796 9.8203125 12.820312 10.796 12.820312 12C12.820312 13.204 13.796 14.179688 15 14.179688C16.204 14.179688 17.179688 13.204 17.179688 12C17.179688 10.796 16.204 9.8203125 15 9.8203125 z M 3 11 A 1 1 0 0 0 2 12 A 1 1 0 0 0 3 13 A 1 1 0 0 0 4 12 A 1 1 0 0 0 3 11 z M 27 11 A 1 1 0 0 0 26 12 A 1 1 0 0 0 27 13 A 1 1 0 0 0 28 12 A 1 1 0 0 0 27 11 z M 6.515625 19.484375 A 1 1 0 0 0 5.515625 20.484375 A 1 1 0 0 0 6.515625 21.484375 A 1 1 0 0 0 7.515625 20.484375 A 1 1 0 0 0 6.515625 19.484375 z M 23.484375 19.484375 A 1 1 0 0 0 22.484375 20.484375 A 1 1 0 0 0 23.484375 21.484375 A 1 1 0 0 0 24.484375 20.484375 A 1 1 0 0 0 23.484375 19.484375 z M 12 25L12 26C12 27.105 12.895 28 14 28 A 1 1 0 0 0 15 29 A 1 1 0 0 0 16 28C17.105 28 18 27.105 18 26L18 25L12 25 z"/></svg>