<svg xmlns="http://www.w3.org/2000/svg" xmlns:xlink="http://www.w3.org/1999/xlink" viewBox="0 0 64 64"><radialGradient id="MniMDV6BHsPrDhT90xk6Ja" cx="29.149" cy="32.489" r="38.81" gradientTransform="matrix(1 0 0 -1 0 66)" gradientUnits="userSpaceOnUse"><stop offset="0" stop-color="#afeeff"/><stop offset=".193" stop-color="#bbf1ff"/><stop offset=".703" stop-color="#d7f8ff"/><stop offset="1" stop-color="#e1faff"/></radialGradient><circle cx="20.5" cy="60.5" r="2.5" fill="url(#MniMDV6BHsPrDhT90xk6Ja)"/><radialGradient id="MniMDV6BHsPrDhT90xk6Jb" cx="29.149" cy="32.489" r="38.81" gradientTransform="matrix(1 0 0 -1 0 66)" gradientUnits="userSpaceOnUse"><stop offset="0" stop-color="#afeeff"/><stop offset=".193" stop-color="#bbf1ff"/><stop offset=".703" stop-color="#d7f8ff"/><stop offset="1" stop-color="#e1faff"/></radialGradient><path fill="url(#MniMDV6BHsPrDhT90xk6Jb)" d="M60.5,55h-6c-0.83,0-1.5,0.67-1.5,1.5s0.67,1.5,1.5,1.5c1.38,0,2.5,1.12,2.5,2.5S55.88,63,54.5,63h-26c-0.69,0-1.32-0.28-1.77-0.73C26.28,61.82,26,61.19,26,60.5c0-1.38,1.12-2.5,2.5-2.5h5c0.83,0,1.5-0.67,1.5-1.5S34.33,55,33.5,55h-2.91c-1.14,0-2.2-0.72-2.5-1.82C27.64,51.52,28.9,50,30.5,50H31c1.1,0,2-0.9,2-2s-0.9-2-2-2h-6.41c-1.14,0-2.2-0.72-2.5-1.82C21.64,42.52,22.9,41,24.5,41H25c0.73,0,1.37-0.41,1.72-1h-9.13c-1.14,0-2.21-0.72-2.5-1.82C14.64,36.52,15.9,35,17.5,35c0.22,0,0.44-0.05,0.63-0.14c-0.13-0.46-0.17-0.95-0.07-1.46c0.07-0.38,0.22-0.72,0.42-1.02C18.22,32.15,17.88,32,17.5,32h-2.91c-1.14,0-2.21-0.72-2.5-1.82C11.64,28.52,12.9,27,14.5,27H15c1.1,0,2-0.9,2-2s-0.9-2-2-2H8.59c-1.14,0-2.21-0.72-2.5-1.82C5.64,19.52,6.9,18,8.5,18H9c1.1,0,2-0.9,2-2s-0.9-2-2-2H5c-1.85,0-3.32-1.69-2.94-3.6C2.34,8.97,3.68,8,5.13,8h5.37C11.33,8,12,7.33,12,6.5S11.33,5,10.5,5H8.59c-1.14,0-2.21-0.72-2.5-1.82C5.64,1.52,6.9,0,8.5,0h25.91c1.14,0,2.2,0.72,2.5,1.82C37.35,3.48,36.09,5,34.5,5H32c-1.1,0-2,0.9-2,2c0,0.55,0.22,1.05,0.59,1.41c0.24,0.24,0.53,0.42,0.87,0.51c0.01,0.03,0.03,0.05,0.05,0.08H42c1.66,0,3,1.34,3,3c0,0.09-0.02,0.18-0.03,0.27C45.1,13.75,43.95,15,42.5,15h-3c-0.83,0-1.5,0.67-1.5,1.5s0.67,1.5,1.5,1.5h1.91c1.14,0,2.2,0.72,2.5,1.82C44.35,21.48,43.09,23,41.5,23h6.91c1.14,0,2.2,0.72,2.5,1.82c0.22,0.82,0.02,1.6-0.42,2.18h1.92c1.14,0,2.2,0.72,2.5,1.82C55.35,30.48,54.09,32,52.5,32h-7.99c0.46,0.6,1.17,1,1.99,1h9.91c1.14,0,2.2,0.72,2.5,1.82C59.36,36.48,58.1,38,56.5,38h-3c-0.83,0-1.5,0.67-1.5,1.5s0.67,1.5,1.5,1.5h1.91c1.14,0,2.2,0.72,2.5,1.82C58.36,44.48,57.1,46,55.5,46H51c-1.1,0-2,0.9-2,2s0.9,2,2,2h9.41c1.14,0,2.2,0.72,2.5,1.82C63.36,53.48,62.1,55,60.5,55z"/><linearGradient id="MniMDV6BHsPrDhT90xk6Jc" x1="4" x2="60" y1="9446" y2="9446" gradientTransform="translate(0 -9414)" gradientUnits="userSpaceOnUse"><stop offset="0" stop-color="#ffad6b"/><stop offset=".472" stop-color="#ff8b67"/><stop offset=".62" stop-color="#ff8b67"/><stop offset=".65" stop-color="#ff8f67"/><stop offset=".822" stop-color="#ffa169"/><stop offset=".947" stop-color="#ffa76a"/><stop offset="1" stop-color="#ffad6b"/><stop offset="1" stop-color="#ffad6b"/></linearGradient><path fill="url(#MniMDV6BHsPrDhT90xk6Jc)" d="M55,52H9c-2.761,0-5-2.239-5-5V17c0-2.761,2.239-5,5-5h46c2.761,0,5,2.239,5,5v30C60,49.761,57.761,52,55,52z"/><linearGradient id="MniMDV6BHsPrDhT90xk6Jd" x1="9.5" x2="9.5" y1="9463.228" y2="9440" gradientTransform="translate(0 -9414)" gradientUnits="userSpaceOnUse"><stop offset="0" stop-color="#f9af70"/><stop offset="1" stop-color="#ffb37b"/></linearGradient><path fill="url(#MniMDV6BHsPrDhT90xk6Jd)" d="M5.023,49H12.5c1.381,0,2.5-1.119,2.5-2.5S13.881,44,12.5,44H9c-1.105,0-2-0.895-2-2s0.895-2,2-2h0.5c1.381,0,2.5-1.119,2.5-2.5S10.881,35,9.5,35H9c-1.105,0-2-0.895-2-2s0.895-2,2-2h3.5c1.381,0,2.5-1.119,2.5-2.5S13.881,26,12.5,26H4v21c0,0.805,0.208,1.555,0.546,2.229C4.683,48.918,4.843,48.762,5.023,49z"/><linearGradient id="MniMDV6BHsPrDhT90xk6Je" x1="-1453.593" x2="-1452.593" y1="4650.037" y2="4650.037" gradientTransform="matrix(0 -27 -27 0 125583 -39195)" gradientUnits="userSpaceOnUse"><stop offset="0" stop-color="#ff9757"/><stop offset="1" stop-color="#ffb65b"/><stop offset="1" stop-color="#ffb65b"/></linearGradient><path fill="url(#MniMDV6BHsPrDhT90xk6Je)" d="M32,25L4.085,47.84C4.486,50.199,6.526,52,9,52h46c2.474,0,4.514-1.801,4.915-4.16L32,25"/><linearGradient id="MniMDV6BHsPrDhT90xk6Jf" x1="32" x2="32" y1="9452.002" y2="9426" gradientTransform="translate(0 -9414)" gradientUnits="userSpaceOnUse"><stop offset="0" stop-color="#f39d75"/><stop offset=".226" stop-color="#f7ab82"/><stop offset=".703" stop-color="#fdc298"/><stop offset="1" stop-color="#ffcba0"/></linearGradient><path fill="url(#MniMDV6BHsPrDhT90xk6Jf)" d="M4.085,16.16l25.75,21.069c1.259,1.03,3.07,1.03,4.33,0l25.75-21.069C59.514,13.801,57.474,12,55,12H9C6.526,12,4.486,13.801,4.085,16.16z"/><linearGradient id="MniMDV6BHsPrDhT90xk6Jg" x1="52" x2="52" y1="9414" y2="9438" gradientTransform="translate(0 -9414)" gradientUnits="userSpaceOnUse"><stop offset="0" stop-color="#42d778"/><stop offset=".428" stop-color="#3dca76"/><stop offset="1" stop-color="#34b171"/></linearGradient><path fill="url(#MniMDV6BHsPrDhT90xk6Jg)" d="M52,0c-6.627,0-12,5.373-12,12s5.373,12,12,12s12-5.373,12-12S58.627,0,52,0z"/><linearGradient id="MniMDV6BHsPrDhT90xk6Jh" x1="41.5" x2="41.5" y1="9457" y2="9442.931" gradientTransform="translate(0 -9414)" gradientUnits="userSpaceOnUse"><stop offset="0" stop-color="#ff8b67"/><stop offset=".847" stop-color="#ffa76a"/><stop offset="1" stop-color="#ffad6b"/><stop offset="1" stop-color="#ffad6b"/></linearGradient><path fill="url(#MniMDV6BHsPrDhT90xk6Jh)" d="M41.5,43L41.5,43c-1.381,0-2.5-1.119-2.5-2.5l0,0c0-1.381,1.119-2.5,2.5-2.5l0,0c1.381,0,2.5,1.119,2.5,2.5l0,0C44,41.881,42.881,43,41.5,43z"/><linearGradient id="MniMDV6BHsPrDhT90xk6Ji" x1="48" x2="48" y1="9461.833" y2="9439.166" gradientTransform="translate(0 -9414)" gradientUnits="userSpaceOnUse"><stop offset="0" stop-color="#ff8b67"/><stop offset=".847" stop-color="#ffa76a"/><stop offset="1" stop-color="#ffad6b"/><stop offset="1" stop-color="#ffad6b"/></linearGradient><path fill="url(#MniMDV6BHsPrDhT90xk6Ji)" d="M60,47v-9H48.5c-1.381,0-2.5,1.119-2.5,2.5s1.119,2.5,2.5,2.5H49c1.105,0,2,0.895,2,2s-0.895,2-2,2H38.5c-1.381,0-2.5,1.119-2.5,2.5s1.119,2.5,2.5,2.5H55C57.761,52,60,49.761,60,47z"/><path fill="none" stroke="#fff" stroke-linecap="round" stroke-linejoin="round" stroke-width="4" d="M46,7v2c0,2.209,1.791,4,4,4h8"/><line x1="59" x2="55" y1="13" y2="17" fill="none" stroke="#fff" stroke-linecap="round" stroke-linejoin="round" stroke-width="4"/><line x1="59" x2="55" y1="13" y2="9" fill="none" stroke="#fff" stroke-linecap="round" stroke-linejoin="round" stroke-width="4"/></svg>