<svg xmlns="http://www.w3.org/2000/svg" xmlns:xlink="http://www.w3.org/1999/xlink" width="44" height="52" viewBox="0 0 44 52">
  <defs>
    <linearGradient id="linear-gradient" x1="0.5" y1="81.725" x2="0.5" y2="80.313" gradientUnits="objectBoundingBox">
      <stop offset="0" stop-color="#ff5840"/>
      <stop offset="0.007" stop-color="#ff5840"/>
      <stop offset="0.468" stop-color="#fa528c"/>
      <stop offset="1" stop-color="#fa528c"/>
    </linearGradient>
    <linearGradient id="linear-gradient-2" x1="0.5" y1="81" x2="0.5" y2="80" gradientUnits="objectBoundingBox">
      <stop offset="0" stop-color="#ff724e"/>
      <stop offset="0.214" stop-color="#fe7366"/>
      <stop offset="0.524" stop-color="#fc7383"/>
      <stop offset="0.793" stop-color="#fb7495"/>
      <stop offset="0.989" stop-color="#fb749b"/>
      <stop offset="1" stop-color="#fb749b"/>
    </linearGradient>
    <linearGradient id="linear-gradient-3" x1="0.5" y1="-0.673" x2="0.5" y2="0.242" gradientUnits="objectBoundingBox">
      <stop offset="0" stop-color="#ffc050"/>
      <stop offset="0.004" stop-color="#ffc050"/>
      <stop offset="0.641" stop-color="#ffbe75"/>
      <stop offset="1" stop-color="#ffbd85"/>
    </linearGradient>
    <linearGradient id="linear-gradient-4" x1="0.5" y1="65.345" x2="0.5" y2="64.345" gradientUnits="objectBoundingBox">
      <stop offset="0" stop-color="#ffc975"/>
      <stop offset="1" stop-color="#ffc78e"/>
    </linearGradient>
    <linearGradient id="linear-gradient-5" x1="0.5" y1="110.765" x2="0.5" y2="109.765" gradientUnits="objectBoundingBox">
      <stop offset="0" stop-color="#ffb261"/>
      <stop offset="1" stop-color="#ffb66d"/>
    </linearGradient>
    <linearGradient id="linear-gradient-6" x1="0.5" y1="2.507" x2="0.5" y2="1.601" gradientUnits="objectBoundingBox">
      <stop offset="0" stop-color="#ffbd85"/>
      <stop offset="0.359" stop-color="#ffbe75"/>
      <stop offset="0.996" stop-color="#ffc050"/>
      <stop offset="1" stop-color="#ffc050"/>
    </linearGradient>
    <linearGradient id="linear-gradient-7" x1="-24.033" y1="170.535" x2="-24.033" y2="168.407" xlink:href="#linear-gradient-4"/>
    <linearGradient id="linear-gradient-8" x1="0.5" y1="171.828" x2="0.5" y2="168.333" xlink:href="#linear-gradient-2"/>
    <linearGradient id="linear-gradient-9" x1="0.5" y1="67.713" x2="0.5" y2="66.713" gradientUnits="objectBoundingBox">
      <stop offset="0" stop-color="#ff5c4c"/>
      <stop offset="0.221" stop-color="#fd5d65"/>
      <stop offset="0.527" stop-color="#fc5e82"/>
      <stop offset="0.793" stop-color="#fa5f93"/>
      <stop offset="0.989" stop-color="#fa5f99"/>
      <stop offset="1" stop-color="#fa5f99"/>
    </linearGradient>
  </defs>
  <g id="packaging" transform="translate(-921 -57)">
    <path id="Path_246" data-name="Path 246" d="M43.4,15.408,31.131,27.673a5.48,5.48,0,0,1-7.75,0l-.006-.006a5.48,5.48,0,0,1,0-7.75L35.639,7.652a5.48,5.48,0,0,1,7.75,0l.006.006A5.48,5.48,0,0,1,43.4,15.408Z" transform="translate(911 51)" fill="url(#linear-gradient)"/>
    <path id="Path_247" data-name="Path 247" d="M20.6,15.456,32.869,27.72a5.48,5.48,0,0,0,7.75,0l.1-.1a5.48,5.48,0,0,0,0-7.75L28.456,7.605a5.48,5.48,0,0,0-7.75,0l-.1.1A5.48,5.48,0,0,0,20.6,15.456Z" transform="translate(911 51)" fill="url(#linear-gradient-2)"/>
    <path id="Path_248" data-name="Path 248" d="M51,28H13V54a4,4,0,0,0,4,4H47a4,4,0,0,0,4-4Z" transform="translate(911 51)" fill="url(#linear-gradient-3)"/>
    <path id="Path_249" data-name="Path 249" d="M35,31.5h0A2.5,2.5,0,0,0,32.5,29H13V54a4,4,0,0,0,4,4h5a3,3,0,0,0,3-3h0a3,3,0,0,0-3-3H20a3,3,0,0,1-3-3h0a3,3,0,0,1,3-3h3a3,3,0,0,0,3-3h0a3,3,0,0,0-3-3H21a3,3,0,0,1-3-3h0a3,3,0,0,1,3-3H32.5A2.5,2.5,0,0,0,35,31.5Z" transform="translate(911 51)" fill="url(#linear-gradient-4)"/>
    <path id="Path_250" data-name="Path 250" d="M40,44h0a3,3,0,0,0,3,3h.5A2.5,2.5,0,0,1,46,49.5h0A2.5,2.5,0,0,1,43.5,52H39a3,3,0,0,0-3,3h0a3,3,0,0,0,3,3h8a4,4,0,0,0,4-4V41H43A3,3,0,0,0,40,44Z" transform="translate(911 51)" fill="url(#linear-gradient-5)"/>
    <path id="Path_251" data-name="Path 251" d="M52,30H12a2,2,0,0,1-2-2V23a4,4,0,0,1,4-4H50a4,4,0,0,1,4,4v5A2,2,0,0,1,52,30Z" transform="translate(911 51)" fill="url(#linear-gradient-6)"/>
    <path id="Path_252" data-name="Path 252" d="M14,19h6a2,2,0,0,1,0,4H18.5a1.5,1.5,0,0,0,0,3H23a2,2,0,0,1,0,4H12a2,2,0,0,1-2-2V23A4,4,0,0,1,14,19Z" transform="translate(911 51)" fill="url(#linear-gradient-7)"/>
    <path id="Path_253" data-name="Path 253" d="M29,19V30h6V19Z" transform="translate(911 51)" fill="url(#linear-gradient-8)"/>
    <path id="Path_254" data-name="Path 254" d="M29,30V58h6V30Z" transform="translate(911 51)" fill="url(#linear-gradient-9)"/>
  </g>
</svg>
