<svg xmlns="http://www.w3.org/2000/svg" width="1957.333" height="1036.001" viewBox="0 0 1957.333 1036.001">
  <g id="Group_14" data-name="Group 14" transform="translate(71.333 -74.333)">
    <g id="Group_9" data-name="Group 9" transform="translate(96.853 450.814)">
      <path id="Path_199" data-name="Path 199" d="M-87.583-100.439c1.919,2.379,2.086,6.069,1.293,9.587s-2.545,6.885-5.476,8.478A11.443,11.443,0,0,1-102-82.586a11.368,11.368,0,0,1-6.029-7.933,11.04,11.04,0,0,1,2.785-8.982,12.612,12.612,0,0,1,8.658-4.153C-93.195-103.877-89.513-102.808-87.583-100.439Z" transform="translate(108.159 103.684)" fill="#3d0ef7"/>
    </g>
    <g id="Group_10" data-name="Group 10" transform="translate(426.035 987.733)">
      <path id="Path_200" data-name="Path 200" d="M-87.722-93.835a14.128,14.128,0,0,1,2.993,13.016C-86.02-76.461-89.85-73.072-94.3-70.9s-9.538,3.126-14.013,1.482a15.129,15.129,0,0,1-9.333-10.624,15.574,15.574,0,0,1,4.226-13.485c3.331-3.4,8.071-4.93,12.9-4.989S-90.789-97.2-87.722-93.835Z" transform="translate(117.907 98.519)" fill="#0ee0f7"/>
    </g>
    <g id="Group_11" data-name="Group 11" transform="translate(31.667 858.435)">
      <path id="Path_201" data-name="Path 201" d="M-29.623-54.64c4.309,5.061,6.7,12,5.3,18.021-1.4,6.053-6.6,11.216-12.618,13.747a24.762,24.762,0,0,1-19.013-.1c-6.224-2.53-11.866-7.489-13.815-13.883a21.216,21.216,0,0,1,4.343-19.32c4.514-5.1,11.763-7.42,18.5-7.01A24.788,24.788,0,0,1-29.623-54.64Z" transform="translate(70.531 63.235)" fill="#ff7200"/>
    </g>
    <path id="squircle_4_" data-name="squircle (4)" d="M0,21.642C0,0,0,0,21.288,0S42.576,0,42.576,21.642s0,21.642-21.288,21.642S0,43.283,0,21.642" transform="translate(1227 119.288) rotate(45)" fill="#f00010"/>
    <path id="squircle_6_" data-name="squircle (6)" d="M0,19.115C0,14.91,15.059,0,19.306,0S38.612,14.91,38.612,19.115,23.553,38.231,19.306,38.231,0,23.321,0,19.115" transform="translate(316.865 741.664) rotate(45)" fill="#f05ffa"/>
    <path id="squircle_1_" data-name="squircle (1)" d="M0,23.886C0,12.66,12.66,0,23.886,0S47.772,12.66,47.772,23.886,35.112,47.772,23.886,47.772,0,35.112,0,23.886" transform="translate(575.228 649.228)" fill="red"/>
    <path id="squircle_5_" data-name="squircle (5)" d="M0,22.212C0,19.1,24.392,0,28.363,0S56.726,19.1,56.726,22.212,32.334,44.424,28.363,44.424,0,25.321,0,22.212" transform="translate(758.888 167) rotate(45)" fill="#fadb5f"/>
    <path id="squircle" d="M0,46.333C0,28.263,31.415,0,51.5,0S103,28.263,103,46.333,71.585,92.667,51.5,92.667,0,64.4,0,46.333" transform="translate(119.168 74.333)" fill="#7a5ffa"/>
    <path id="squircle_5_2" data-name="squircle (5)" d="M0,37.323C0,32.1,34.83,0,40.5,0S81,32.1,81,37.323,46.17,74.647,40.5,74.647,0,42.549,0,37.323" transform="translate(1828.724 885.603) rotate(45)" fill="#5febfa"/>
    <path id="squircle_1_2" data-name="squircle (1)" d="M0,100C0,53,53,0,100,0S200,53,200,100,147,200,100,200,0,147,0,100" transform="translate(1593 119)" fill="#00f812"/>
    <path id="squircle_1_3" data-name="squircle (1)" d="M0,20.25C0,10.732,10.945,0,20.651,0S41.3,10.732,41.3,20.25,30.357,40.5,20.651,40.5,0,29.767,0,20.25" transform="translate(1010.181 547)" fill="#444644"/>
    <path id="squircle_6_2" data-name="squircle (6)" d="M0,19.115C0,14.91,15.059,0,19.306,0S38.612,14.91,38.612,19.115,23.553,38.231,19.306,38.231,0,23.321,0,19.115" transform="translate(1057.865 909.5) rotate(45)" fill="#f05ffa"/>
    <path id="squircle-2" data-name="squircle" d="M0,46.333C0,28.263,31.415,0,51.5,0S103,28.263,103,46.333,71.585,92.667,51.5,92.667,0,64.4,0,46.333" transform="translate(1452 1017.668)" fill="#c25ffa"/>
    <path id="squircle-3" data-name="squircle" d="M0,46.333C0,28.263,31.415,0,51.5,0S103,28.263,103,46.333,71.585,92.667,51.5,92.667,0,64.4,0,46.333" transform="translate(-71.333 963.836)" fill="blue"/>
    <path id="squircle_6_3" data-name="squircle (6)" d="M0,14.679C0,11.449,11.688,0,14.985,0S29.97,11.449,29.97,14.679,18.282,29.358,14.985,29.358,0,17.908,0,14.679" transform="translate(1559.423 593.774) rotate(45)" fill="#fff700"/>
  </g>
</svg>
