<svg xmlns="http://www.w3.org/2000/svg" xmlns:xlink="http://www.w3.org/1999/xlink" viewBox="0 0 64 64"><radialGradient id="nx21kUwquApeUZJQeg2T0a" cx="27.553" cy="34.404" r="19.961" gradientTransform="matrix(1 0 0 -1 0 66)" gradientUnits="userSpaceOnUse"><stop offset="0" stop-color="#f4e9c3"/><stop offset=".219" stop-color="#f8eecd"/><stop offset=".644" stop-color="#fdf4dc"/><stop offset="1" stop-color="#fff6e1"/></radialGradient><path fill="url(#nx21kUwquApeUZJQeg2T0a)" d="M63,46.5c0,2.49-2.01,4.5-4.5,4.5H47c-0.83,0-1.58,0.34-2.12,0.88S44,53.17,44,54c0,1.66,1.34,3,3,3h0.5c2,0,3.6,1.67,3.5,3.69C50.9,62.58,49.2,64,47.3,64H9.5c-2,0-3.6-1.67-3.5-3.69C6.1,58.42,7.8,57,9.7,57H14c0.83,0,1.58-0.34,2.12-0.88S17,54.83,17,54c0-1.66-1.34-3-3-3H5c-1.1,0-2.1-0.45-2.83-1.17C1.45,49.1,1,48.1,1,47c0-2.21,1.79-4,4-4h12v-7h4v-5H5.91C3.75,31,2,29.25,2,27.09v-0.18C2,24.75,3.75,23,5.91,23H20v-5H10c-2.34,0-4.21-2.01-3.98-4.4C6.23,11.52,8.1,10,10.19,10h6.31c0.69,0,1.32-0.28,1.77-0.73C18.72,8.82,19,8.19,19,7.5C19,6.12,17.88,5,16.5,5h-2.03C13.11,5,12,3.89,12,2.53V2.47C12,1.11,13.11,0,14.47,0h35.06C50.89,0,52,1.11,52,2.47v0.06C52,3.89,50.89,5,49.53,5H48c-1.21,0-2.17,1.07-1.97,2.33C46.19,8.31,47.11,9,48.12,9h7.98c2.81,0,4.67,1.52,4.88,3.6C61.21,14.99,59.34,17,57,17h-9c-2.34,0-4.21,2.01-3.98,4.39c0.2,2.08,2.06,3.61,5,3.61h8.28c2.45,0,4.6,1.87,4.7,4.31c0.09,2.33-1.59,4.27-3.79,4.62C57.98,33.98,57.74,34,57.5,34H48v8h10.5c1.24,0,2.37,0.5,3.18,1.32C62.5,44.13,63,45.26,63,46.5z"/><radialGradient id="nx21kUwquApeUZJQeg2T0b" cx="27.553" cy="34.404" r="19.961" gradientTransform="matrix(1 0 0 -1 0 66)" gradientUnits="userSpaceOnUse"><stop offset="0" stop-color="#f4e9c3"/><stop offset=".219" stop-color="#f8eecd"/><stop offset=".644" stop-color="#fdf4dc"/><stop offset="1" stop-color="#fff6e1"/></radialGradient><circle cx="57.5" cy="60.5" r="3.5" fill="url(#nx21kUwquApeUZJQeg2T0b)"/><linearGradient id="nx21kUwquApeUZJQeg2T0c" x1="18.504" x2="18.504" y1="-1" y2="70.514" gradientTransform="matrix(1 0 0 -1 0 66)" gradientUnits="userSpaceOnUse"><stop offset="0" stop-color="#155cde"/><stop offset=".278" stop-color="#1f7fe5"/><stop offset=".569" stop-color="#279ceb"/><stop offset=".82" stop-color="#2cafef"/><stop offset="1" stop-color="#2eb5f0"/></linearGradient><path fill="url(#nx21kUwquApeUZJQeg2T0c)" d="M30.01,41.61c0,0.13,0,0.26-0.01,0.39c0,0.1-0.01,0.21-0.01,0.31c-0.02,0.23-0.04,0.47-0.07,0.69C29.24,48.7,24.88,53,19,53c-6,0-10.64-3.8-11.74-9c-0.07-0.33-0.12-0.66-0.16-1c-0.06-0.45-0.09-0.92-0.09-1.39c0-0.22-0.02-1.13-0.01-1.38v-0.12l0.06-1.89l0.07-1.04l0.1-1.14c0.15-1.36,0.41-2.71,0.74-4.04c0.03-0.14,0.06-0.27,0.1-0.41c0.05-0.2,0.11-0.4,0.17-0.59c0.76-2.69,1.83-5.26,3.19-7.65c1.48-2.56,3.29-4.87,5.33-6.91c1.99-2.04,4.54-3.74,6.55-5.02l0.04-0.02c1.51-0.96,3.5-0.52,4.46,0.99c0.82,1.29,0.62,2.93-0.4,3.98c-0.88,0.91-1.81,1.85-2.49,2.65c-0.35,0.43-0.69,0.87-1.03,1.3c-0.31,0.46-0.65,0.89-0.94,1.35C21.75,23.49,19.2,29.09,19,30h0.05c5.73,0.46,10.64,5.26,10.95,11.04C30.01,41.23,30.01,41.42,30.01,41.61z"/><linearGradient id="nx21kUwquApeUZJQeg2T0d" x1="12" x2="12" y1="-13.268" y2="54" gradientTransform="matrix(1 0 0 -1 0 66)" gradientUnits="userSpaceOnUse"><stop offset="0" stop-color="#155cde"/><stop offset=".278" stop-color="#1f7fe5"/><stop offset=".569" stop-color="#279ceb"/><stop offset=".82" stop-color="#2cafef"/><stop offset="1" stop-color="#2eb5f0"/></linearGradient><path fill="url(#nx21kUwquApeUZJQeg2T0d)" d="M16.99,33.76c-0.13,1.3-1.32,2.24-2.63,2.24H11.5c-0.83,0-1.5,0.67-1.5,1.5s0.67,1.5,1.5,1.5H12c1.21,0,2.18,1.08,1.97,2.34C13.81,42.32,12.89,43,11.89,43H7.1c-0.06-0.45-0.09-0.92-0.09-1.39c0-0.22-0.02-1.13-0.01-1.38v-0.12l0.06-1.89l0.07-1.04l0.1-1.14c0.15-1.36,0.41-2.71,0.74-4.04c0.03-0.14,0.06-0.27,0.1-0.41c0.05-0.2,0.11-0.4,0.17-0.59h6.26C15.97,31,17.14,32.26,16.99,33.76z"/><linearGradient id="nx21kUwquApeUZJQeg2T0e" x1="23.5" x2="23.5" y1="8.702" y2="57.341" gradientTransform="matrix(1 0 0 -1 0 66)" gradientUnits="userSpaceOnUse"><stop offset="0" stop-color="#155cde"/><stop offset=".486" stop-color="#2185e6"/><stop offset="1" stop-color="#2eb5f0"/></linearGradient><path fill="url(#nx21kUwquApeUZJQeg2T0e)" d="M30,42c0,0.1-0.01,0.21-0.01,0.31c-0.02,0.23-0.04,0.47-0.07,0.69C29.24,48.7,24.88,53,19,53c-0.55,0-1.05-0.22-1.41-0.59C17.22,52.05,17,51.55,17,51c0-1.1,0.9-2,2-2h3.5c0.83,0,1.5-0.67,1.5-1.5S23.33,46,22.5,46H22c-0.55,0-1.05-0.22-1.41-0.59C20.22,45.05,20,44.55,20,44c0-1.1,0.9-2,2-2H30z"/><linearGradient id="nx21kUwquApeUZJQeg2T0f" x1="45.504" x2="45.504" y1="-1" y2="70.514" gradientTransform="matrix(1 0 0 -1 0 66)" gradientUnits="userSpaceOnUse"><stop offset="0" stop-color="#155cde"/><stop offset=".278" stop-color="#1f7fe5"/><stop offset=".569" stop-color="#279ceb"/><stop offset=".82" stop-color="#2cafef"/><stop offset="1" stop-color="#2eb5f0"/></linearGradient><path fill="url(#nx21kUwquApeUZJQeg2T0f)" d="M57.01,41.61c0,0.13,0,0.26-0.01,0.39c0,0.1-0.01,0.21-0.01,0.31c-0.02,0.23-0.04,0.47-0.07,0.69C56.24,48.7,51.88,53,46,53c-6,0-10.64-3.8-11.74-9c-0.07-0.33-0.12-0.66-0.16-1c-0.06-0.45-0.09-0.92-0.09-1.39c0-0.22-0.02-1.13-0.01-1.38v-0.12l0.06-1.89l0.07-1.04l0.1-1.14c0.15-1.36,0.41-2.71,0.74-4.04c0.03-0.14,0.06-0.27,0.1-0.41c0.05-0.2,0.11-0.4,0.17-0.59c0.76-2.69,1.83-5.26,3.19-7.65c1.48-2.56,3.29-4.87,5.33-6.91c1.99-2.04,4.54-3.74,6.55-5.02l0.04-0.02c1.51-0.96,3.5-0.52,4.46,0.99c0.82,1.29,0.62,2.93-0.4,3.98c-0.88,0.91-1.81,1.85-2.49,2.65c-0.35,0.43-0.69,0.87-1.03,1.3c-0.31,0.46-0.65,0.89-0.94,1.35C48.75,23.49,46.2,29.09,46,30h0.05c5.73,0.46,10.64,5.26,10.95,11.04C57.01,41.23,57.01,41.42,57.01,41.61z"/><linearGradient id="nx21kUwquApeUZJQeg2T0g" x1="39" x2="39" y1="-13.268" y2="54" gradientTransform="matrix(1 0 0 -1 0 66)" gradientUnits="userSpaceOnUse"><stop offset="0" stop-color="#155cde"/><stop offset=".278" stop-color="#1f7fe5"/><stop offset=".569" stop-color="#279ceb"/><stop offset=".82" stop-color="#2cafef"/><stop offset="1" stop-color="#2eb5f0"/></linearGradient><path fill="url(#nx21kUwquApeUZJQeg2T0g)" d="M43.99,33.76c-0.13,1.3-1.32,2.24-2.63,2.24H38.5c-0.83,0-1.5,0.67-1.5,1.5s0.67,1.5,1.5,1.5H39c1.21,0,2.18,1.08,1.97,2.34C40.81,42.32,39.89,43,38.89,43H34.1c-0.06-0.45-0.09-0.92-0.09-1.39c0-0.22-0.02-1.13-0.01-1.38v-0.12l0.06-1.89l0.07-1.04l0.1-1.14c0.15-1.36,0.41-2.71,0.74-4.04c0.03-0.14,0.06-0.27,0.1-0.41c0.05-0.2,0.11-0.4,0.17-0.59h6.26C42.97,31,44.14,32.26,43.99,33.76z"/><linearGradient id="nx21kUwquApeUZJQeg2T0h" x1="50.5" x2="50.5" y1="8.702" y2="57.341" gradientTransform="matrix(1 0 0 -1 0 66)" gradientUnits="userSpaceOnUse"><stop offset="0" stop-color="#155cde"/><stop offset=".486" stop-color="#2185e6"/><stop offset="1" stop-color="#2eb5f0"/></linearGradient><path fill="url(#nx21kUwquApeUZJQeg2T0h)" d="M57,42c0,0.1-0.01,0.21-0.01,0.31c-0.02,0.23-0.04,0.47-0.07,0.69C56.24,48.7,51.88,53,46,53c-0.55,0-1.05-0.22-1.41-0.59C44.22,52.05,44,51.55,44,51c0-1.1,0.9-2,2-2h3.5c0.83,0,1.5-0.67,1.5-1.5S50.33,46,49.5,46H49c-0.55,0-1.05-0.22-1.41-0.59C47.22,45.05,47,44.55,47,44c0-1.1,0.9-2,2-2H57z"/></svg>