<svg xmlns="http://www.w3.org/2000/svg" xmlns:xlink="http://www.w3.org/1999/xlink" viewBox="0 0 64 64"><radialGradient id="CpAkPMyi7I3uDSakXwqsPa" cx="36" cy="32" r="26.875" gradientUnits="userSpaceOnUse" spreadMethod="reflect"><stop offset="0" stop-color="#f4e9c3"/><stop offset=".219" stop-color="#f8eecd"/><stop offset=".644" stop-color="#fdf4dc"/><stop offset="1" stop-color="#fff6e1"/></radialGradient><path fill="url(#CpAkPMyi7I3uDSakXwqsPa)" d="M5.5,61L5.5,61C3.015,61,1,58.985,1,56.5v0C1,54.015,3.015,52,5.5,52h0 c2.485,0,4.5,2.015,4.5,4.5v0C10,58.985,7.985,61,5.5,61z"/><radialGradient id="CpAkPMyi7I3uDSakXwqsPb" cx="32" cy="31.5" r="30.775" gradientUnits="userSpaceOnUse" spreadMethod="reflect"><stop offset="0" stop-color="#f4e9c3"/><stop offset=".219" stop-color="#f8eecd"/><stop offset=".644" stop-color="#fdf4dc"/><stop offset="1" stop-color="#fff6e1"/></radialGradient><path fill="url(#CpAkPMyi7I3uDSakXwqsPb)" d="M64,24L64,24c0-2.761-2.239-5-5-5h-5c-2.761,0-5-2.238-5-5v0c0-2.762,2.238-5,5-5h0.565 C56.48,9,58,7.48,58,5.605L58,5.5C58,3.567,56.433,2,54.5,2l-38,0c-1.926,0-3.49,1.556-3.5,3.483L13,5.5 C12.99,7.43,14.552,9,16.483,9H17c2.209,0,4,1.791,4,4v0c0,2.209-1.791,4-4,4H5c-2.761,0-5,2.239-5,5v0c0,2.761,2.239,5,5,5h1 c2.209,0,4,1.791,4,4v0c0,2.209-1.791,4-4,4H5.5C2.462,35,0,37.462,0,40.5v0C0,43.538,2.462,46,5.5,46H19c1.657,0,3,1.343,3,3v0 c0,1.657-1.343,3-3,3h-1.5c-2.485,0-4.5,2.015-4.5,4.5v0c0,2.485,2.015,4.5,4.5,4.5H33h22c2.209,0,4-1.791,4-4v0 c0-2.209-1.791-4-4-4h-3.5c-1.933,0-3.5-1.567-3.5-3.5v0c0-1.933,1.567-3.5,3.5-3.5H60c2.209,0,4-1.791,4-4v0c0-2.209-1.791-4-4-4 h-1.5c-2.485,0-4.5-2.015-4.5-4.5v0c0-2.485,2.015-4.5,4.5-4.5H59C61.761,29,64,26.761,64,24z"/><linearGradient id="CpAkPMyi7I3uDSakXwqsPc" x1="32" x2="32" y1="58.809" y2="16.809" gradientUnits="userSpaceOnUse" spreadMethod="reflect"><stop offset="0" stop-color="#155cde"/><stop offset=".278" stop-color="#1f7fe5"/><stop offset=".569" stop-color="#279ceb"/><stop offset=".82" stop-color="#2cafef"/><stop offset="1" stop-color="#2eb5f0"/></linearGradient><path fill="url(#CpAkPMyi7I3uDSakXwqsPc)" d="M50,53c-2.761,0-5-2.239-5-5c0-10.477-8.523-19-19-19c0,0,0,0,0,0v5.539 c0,2.12-2.504,3.244-4.089,1.836l-12.24-10.88c-0.895-0.796-0.895-2.194,0-2.99l12.24-10.88C23.495,10.217,26,11.342,26,13.461V19 c0,0,0,0,0,0c15.991,0,29,13.009,29,29C55,50.761,52.761,53,50,53z"/></svg>